
<svg width="18px" height="18px" viewBox="0 0 18 18" version="1.1" xmlns="http://www.w3.org/2000/svg" xmlns:xlink="http://www.w3.org/1999/xlink">
    <defs>
        <polygon id="path-1" points="-4.49403899e-16 0 18 0 18 18 -4.49403899e-16 18"></polygon>
    </defs>
    <g id="Page-1" stroke="none" stroke-width="1" fill="none" fill-rule="evenodd">
        <g id="Menu-popup" transform="translate(-950.000000, -682.000000)">
            <g id="cancel" transform="translate(950.000000, 682.000000)">
                <mask id="mask-2" fill="white">
                    <use xlink:href="#path-1"></use>
                </mask>
                <g id="Clip-2"></g>
                <path d="M8.13945221,9.00261099 L0.17113391,17.0249937 C-0.0500129403,17.2490965 -0.0500129403,17.6098559 0.17113391,17.8325425 C0.281179958,17.9447709 0.426736072,18 0.572292187,18 C0.716441962,18 0.861998076,17.9447709 0.972044124,17.8325425 L8.99942867,9.74926612 L17.0282196,17.8325425 C17.137914,17.9447709 17.2834701,18 17.4276199,18 C17.573176,18 17.7176774,17.9447709 17.8287782,17.8325425 C18.049925,17.6098559 18.049925,17.2490965 17.8287782,17.0249937 L9.86186623,9.00261099 L17.8344036,0.973147597 C18.0551988,0.75046098 18.0551988,0.38970158 17.8344036,0.167014963 C17.6132567,-0.0556716543 17.2546402,-0.0556716543 17.0334933,0.167014963 L9.00083501,8.25595586 L0.966418767,0.167014963 C0.745271917,-0.0556716543 0.387006988,-0.0556716543 0.165860138,0.167014963 C-0.0552867125,0.38970158 -0.0552867125,0.75046098 0.165860138,0.973147597 L8.13945221,9.00261099 Z" id="Fill-1" fill="#FFFFFF" mask="url(#mask-2)"></path>
            </g>
        </g>
    </g>
</svg>