
<svg width="20px" height="19px" viewBox="0 0 20 19" version="1.1" xmlns="http://www.w3.org/2000/svg" xmlns:xlink="http://www.w3.org/1999/xlink">
    <defs>
        <polygon id="path-1" points="-1.02143815e-15 0 20 0 20 19 -1.02143815e-15 19"></polygon>
    </defs>
    <g id="Page-1" stroke="none" stroke-width="1" fill="none" fill-rule="evenodd" opacity="0.498930432">
        <g id="Deal-single-page" transform="translate(-1071.000000, -313.000000)">
            <g id="gift" transform="translate(1071.000000, 313.000000)">
                <mask id="mask-2" fill="white">
                    <use xlink:href="#path-1"></use>
                </mask>
                <g id="Clip-2"></g>
                <path d="M1.17647059,17.6428571 C1.17647059,18.392 1.70470588,19 2.35294118,19 L8.23529412,19 L8.23529412,9.5 L1.17647059,9.5 L1.17647059,17.6428571" id="Fill-1" fill="#0A090B" mask="url(#mask-2)"></path>
                <path d="M12.7125,1.76472827 C13.21625,1.21084797 14.0975,1.2081262 14.60625,1.76472827 C15.13125,2.33902184 15.13125,3.27531089 14.60625,3.84960446 C14.0675,4.44022866 12.41875,5.41734426 11.55375,5.41734426 C11.37625,5.41734426 11.32375,5.37379594 11.32375,5.37243505 C11.0325,5.04446171 11.87,2.68740846 12.7125,1.76472827 Z M5.39375,3.84960446 C4.87,3.27531089 4.87,2.33902184 5.39375,1.76472827 C5.6475,1.48710768 5.98375,1.33468853 6.34125,1.33468853 C6.6975,1.33468853 7.03375,1.48710768 7.2875,1.76472827 C8.13,2.68740846 8.9675,5.04446171 8.67625,5.37243505 C8.67625,5.37243505 8.62375,5.41734426 8.445,5.41734426 C7.58125,5.41734426 5.9325,4.44022866 5.39375,3.84960446 Z M18.75,5.41734426 L14.795,5.41734426 C15.07875,5.20640705 15.3225,4.99683072 15.4925,4.80902856 C16.50125,3.70535063 16.50125,1.9089821 15.4925,0.805304167 C14.5125,-0.269795176 12.805,-0.267073406 11.82625,0.805304167 C11.28375,1.39728925 9.84625,3.80741702 10.045,5.41734426 L9.955,5.41734426 C10.1525,3.80741702 8.715,1.39728925 8.17375,0.805304167 C7.19375,-0.267073406 5.48625,-0.267073406 4.5075,0.805304167 C3.5,1.9089821 3.5,3.70535063 4.50625,4.80902856 C4.6775,4.99683072 4.92125,5.20640705 5.205,5.41734426 L1.25,5.41734426 C0.56125,5.41734426 0,6.02838174 0,6.77822951 L0,8.81955738 C0,9.19516171 0.28,9.5 0.625,9.5 L8.75,9.5 L8.75,6.77822951 L11.25,6.77822951 L11.25,9.5 L19.375,9.5 C19.72,9.5 20,9.19516171 20,8.81955738 L20,6.77822951 C20,6.02838174 19.44,5.41734426 18.75,5.41734426 Z" id="Fill-3" fill="#0A090B" mask="url(#mask-2)"></path>
                <path d="M11.7647059,19 L17.6470588,19 C18.2964706,19 18.8235294,18.392 18.8235294,17.6428571 L18.8235294,9.5 L11.7647059,9.5 L11.7647059,19" id="Fill-4" fill="#0A090B" mask="url(#mask-2)"></path>
            </g>
        </g>
    </g>
</svg>