
<svg width="19px" height="22px" viewBox="0 0 19 22" version="1.1" xmlns="http://www.w3.org/2000/svg" xmlns:xlink="http://www.w3.org/1999/xlink">
    <g id="Page-1" stroke="none" stroke-width="1" fill="none" fill-rule="evenodd">
        <g id="Artboard-Copy-4" transform="translate(-1711.000000, -39.000000)" fill="#FFFFFF">
            <path d="M1727.62503,55.3636364 L1727.62503,49.3030114 C1727.62503,45.5757386 1725.68347,42.4666477 1722.28128,41.6424432 L1722.28128,40.8181818 C1722.28128,39.8121023 1721.48562,39 1720.50003,39 C1719.51438,39 1718.71878,39.8121023 1718.71878,40.8181818 L1718.71878,41.6424432 C1715.31659,42.4666477 1713.37502,45.5757386 1713.37502,49.3030114 L1713.37502,55.3636364 L1711,57.7878977 L1711,59 L1730,59 L1730,57.7878977 L1727.62503,55.3636364 Z M1720.50003,61 C1721.88127,61 1723,60.1050226 1723,59 L1718,59 C1718,60.1050226 1719.11873,61 1720.50003,61 Z" id="notification"></path>
        </g>
    </g>
</svg>