
<svg width="19px" height="17px" viewBox="0 0 19 17" version="1.1" xmlns="http://www.w3.org/2000/svg" xmlns:xlink="http://www.w3.org/1999/xlink">
    <g id="Page-1" stroke="none" stroke-width="1" fill="none" fill-rule="evenodd">
        <g id="Artboard-Copy-5" transform="translate(-1501.000000, -95.000000)">
            <g id="Group-13" transform="translate(1501.000000, 95.000000)">
                <path d="M7.46154723,8.06732583 C7.46154723,8.06732583 5.43424272,-0.704603938 2.26738055,0.0455045432 C-0.899068131,0.795199742 1.14560264,5.76905956 1.43214598,5.96371581 C1.43214598,5.96371581 -1.12193518,6.86425927 0.59153614,10.581739 C2.30542094,14.2988055 5.60542446,11.4132643 5.60542446,11.4132643 C5.60542446,11.4132643 3.45903701,13.9995887 3.67776923,14.1587026 C3.89691493,14.3174033 4.19172793,14.9059181 6.09498769,11.7149608 C6.09498769,11.7149608 5.65297494,16.8896761 9.56410554,16.5325997 C13.4752361,16.1763498 13.5732315,14.1082821 13.5810876,13.7660839 C13.5810876,13.7660839 18.1008644,13.7313681 18.9191462,11.6108135 C19.737428,9.49067217 14.2050327,6.61133013 8.64369358,8.77817243 C8.64369358,8.77817243 9.04807943,6.78573552 7.46154723,8.06732583" id="Fill-3" fill="#25475F"></path>
                <path d="M7.46154723,8.06732583 C7.46154723,8.06732583 5.43424272,-0.704603938 2.26738055,0.0455045432 C-0.899068131,0.795199742 1.14560264,5.76905956 1.43214598,5.96371581 C1.43214598,5.96371581 -1.12193518,6.86425927 0.59153614,10.581739 C2.30542094,14.2988055 5.60542446,11.4132643 5.60542446,11.4132643 C5.60542446,11.4132643 3.45903701,13.9995887 3.67776923,14.1587026 C3.89691493,14.3174033 4.19172793,14.9059181 6.09498769,11.7149608 C6.09498769,11.7149608 5.65297494,16.8896761 9.56410554,16.5325997 C13.4752361,16.1763498 13.5732315,14.1082821 13.5810876,13.7660839 C13.5810876,13.7660839 18.1008644,13.7313681 18.9191462,11.6108135 C19.737428,9.49067217 14.2050327,6.61133013 8.64369358,8.77817243 C8.64369358,8.77817243 9.04807943,6.78573552 7.46154723,8.06732583" id="Fill-3" fill="#76BBC5"></path>
                <path d="M8.30408006,7.78835979 L8.39992302,7.58850297 C9.04541955,6.24287607 7.02040031,2.05799534 7,2.01560147 L7.14588145,1.94708995 C7.22786759,2.11439433 9.0669746,5.9173517 8.61585835,7.47267685 C8.97613549,7.31899907 9.84872979,6.96773556 10.8702848,6.70201684 C12.6774442,6.23189908 14.0669746,6.23984794 15,6.72434932 L14.9241724,6.86553605 C12.7806005,5.75080435 8.55003849,7.67518329 8.50769823,7.69448764 L8.30408006,7.78835979 Z" id="Fill-5" fill="#76BBC5"></path>
                <path d="M7.46154723,8.06732583 C7.46154723,8.06732583 5.43424272,-0.704603938 2.26738055,0.0455045432 C-0.899068131,0.795199742 1.14560264,5.76905956 1.43214598,5.96371581 C1.43214598,5.96371581 -1.12193518,6.86425927 0.59153614,10.581739 C2.30542094,14.2988055 5.60542446,11.4132643 5.60542446,11.4132643 C5.60542446,11.4132643 3.45903701,13.9995887 3.67776923,14.1587026 C3.89691493,14.3174033 4.19172793,14.9059181 6.09498769,11.7149608 C6.09498769,11.7149608 5.65297494,16.8896761 9.56410554,16.5325997 C13.4752361,16.1763498 13.5732315,14.1082821 13.5810876,13.7660839 C13.5810876,13.7660839 18.1008644,13.7313681 18.9191462,11.6108135 C19.737428,9.49067217 14.2050327,6.61133013 8.64369358,8.77817243 C8.64369358,8.77817243 9.04807943,6.78573552 7.46154723,8.06732583" id="Fill-3" fill="#25475F"></path>
                <path d="M7.46154723,8.06732583 C7.46154723,8.06732583 5.43424272,-0.704603938 2.26738055,0.0455045432 C-0.899068131,0.795199742 1.14560264,5.76905956 1.43214598,5.96371581 C1.43214598,5.96371581 -1.12193518,6.86425927 0.59153614,10.581739 C2.30542094,14.2988055 5.60542446,11.4132643 5.60542446,11.4132643 C5.60542446,11.4132643 3.45903701,13.9995887 3.67776923,14.1587026 C3.89691493,14.3174033 4.19172793,14.9059181 6.09498769,11.7149608 C6.09498769,11.7149608 5.65297494,16.8896761 9.56410554,16.5325997 C13.4752361,16.1763498 13.5732315,14.1082821 13.5810876,13.7660839 C13.5810876,13.7660839 18.1008644,13.7313681 18.9191462,11.6108135 C19.737428,9.49067217 14.2050327,6.61133013 8.64369358,8.77817243 C8.64369358,8.77817243 9.04807943,6.78573552 7.46154723,8.06732583" id="Fill-3" fill="#000000"></path>
                <path d="M8.30408006,7.78835979 L8.39992302,7.58850297 C9.04541955,6.24287607 7.02040031,2.05799534 7,2.01560147 L7.14588145,1.94708995 C7.22786759,2.11439433 9.0669746,5.9173517 8.61585835,7.47267685 C8.97613549,7.31899907 9.84872979,6.96773556 10.8702848,6.70201684 C12.6774442,6.23189908 14.0669746,6.23984794 15,6.72434932 L14.9241724,6.86553605 C12.7806005,5.75080435 8.55003849,7.67518329 8.50769823,7.69448764 L8.30408006,7.78835979 Z" id="Fill-5" fill="#76BBC5"></path>
            </g>
        </g>
    </g>
</svg>