
<svg width="26px" height="8px" viewBox="0 0 26 8" version="1.1" xmlns="http://www.w3.org/2000/svg" xmlns:xlink="http://www.w3.org/1999/xlink">
    <g id="Page-1" stroke="none" stroke-width="1" fill="none" fill-rule="evenodd" opacity="0.539457775">
        <g id="Deals-page" transform="translate(-1043.000000, -77.000000)" fill="#000000">
            <g id="list" transform="translate(1056.000000, 81.000000) scale(1, -1) translate(-1056.000000, -81.000000) translate(1043.000000, 77.000000)">
                <path d="M25.9334901,0 L9.20164505,0 C9.1684247,0 9.13513514,0.0492203721 9.13513514,0.117371657 L9.13513514,2.88262834 C9.13513514,2.9412531 9.16274955,3 9.20164505,3 L25.9334901,3 C25.9667796,3 26,2.95090176 26,2.88262834 L26,0.117371657 C26,0.0492203721 25.9724548,0 25.9334901,0 Z" id="Fill-5"></path>
                <path d="M9.19327023,8 L16.1040876,8 C16.1331249,8 16.1621622,7.95090176 16.1621622,7.88262834 L16.1621622,5.11737166 C16.1621622,5.0587469 16.1378434,5 16.1040876,5 L9.19327023,5 C9.16423293,5 9.13513514,5.04922037 9.13513514,5.11737166 L9.13513514,7.88262834 C9.1398537,7.9412531 9.16423293,8 9.19327023,8 Z" id="Fill-6"></path>
                <rect id="Rectangle-Copy-11" fill-rule="nonzero" x="0" y="0" width="6.32432432" height="7"></rect>
            </g>
        </g>
    </g>
</svg>