
<svg width="21px" height="21px" viewBox="0 0 21 21" version="1.1" xmlns="http://www.w3.org/2000/svg" xmlns:xlink="http://www.w3.org/1999/xlink">
    <g id="Brusselslife-home-section-article" stroke="none" stroke-width="1" fill="none" fill-rule="evenodd">
        <g id="Final-header" transform="translate(-57.000000, -110.000000)" fill="#FFFFFF">
            <g id="cancel-music" transform="translate(57.000000, 110.000000)">
                <path d="M12.9955073,10.4997535 L20.4829072,3.0128795 C21.1723643,2.3234255 21.1723643,1.20605152 20.4829072,0.517090506 C19.7940664,-0.172363502 18.6765643,-0.172363502 17.9871072,0.517090506 L10.4997073,8.0044575 L3.01230733,0.517090506 C2.32346654,-0.172363502 1.20596439,-0.172363502 0.517000345,0.517090506 C-0.172333448,1.20605152 -0.172333448,2.3234255 0.517000345,3.0128795 L8.0039073,10.4997535 L0.517000345,17.9871205 C-0.172333448,18.6765745 -0.172333448,19.7939485 0.517000345,20.4829095 C1.20596439,21.1723635 2.32346654,21.1723635 3.01230733,20.4829095 L10.4997073,12.9955425 L17.9871072,20.4829095 C18.6765643,21.1723635 19.7940664,21.1723635 20.4829072,20.4829095 C21.1723643,19.7934555 21.1723643,18.6765745 20.4829072,17.9871205 L12.9955073,10.4997535 Z" id="Fill-1"></path>
            </g>
        </g>
    </g>
</svg>