<svg width="20px" height="13px" viewBox="0 0 20 13" version="1.1" xmlns="http://www.w3.org/2000/svg" xmlns:xlink="http://www.w3.org/1999/xlink">
    <g id="Page-1" stroke="none" stroke-width="1" fill="none" fill-rule="evenodd">
        <g id="new-header" transform="translate(-236.000000, -187.000000)" fill="#000000">
            <g id="menu" transform="translate(236.000000, 187.000000)">
                <path d="M0.755696023,1.73333333 L19.2466626,1.73333333 C19.6631917,1.73333333 20,1.3459206 20,0.868021257 C20,0.389580077 19.6631917,0 19.2466626,0 L0.755696023,0 C0.339166942,0 0,0.389580077 0,0.868021257 C0,1.3459206 0.339166942,1.73333333 0.755696023,1.73333333 Z" id="Fill-1"></path>
                <path d="M0.755696023,7.8 L19.2466626,7.8 C19.6631917,7.8 20,7.41258727 20,6.93468792 C20,6.45624674 19.6631917,6.06666667 19.2466626,6.06666667 L0.755696023,6.06666667 C0.339166942,6.06666667 0,6.45624674 0,6.93468792 C0,7.41258727 0.339166942,7.8 0.755696023,7.8 Z" id="Fill-2"></path>
                <path d="M0.755696023,13 L19.2466626,13 C19.6631917,13 20,12.6125873 20,12.1346879 C20,11.6562467 19.6631917,11.2666667 19.2466626,11.2666667 L0.755696023,11.2666667 C0.339166942,11.2666667 0,11.6562467 0,12.1346879 C0,12.6125873 0.339166942,13 0.755696023,13 Z" id="Fill-3"></path>
            </g>
        </g>
    </g>
</svg>