
<svg width="16px" height="17px" viewBox="0 0 16 17" version="1.1" xmlns="http://www.w3.org/2000/svg" xmlns:xlink="http://www.w3.org/1999/xlink">
    <g id="Page-1" stroke="none" stroke-width="1" fill="none" fill-rule="evenodd">
        <g id="Artboard-Copy-2" transform="translate(-550.000000, -207.000000)" fill="#FF7600">
            <g id="icon-2" transform="translate(550.000000, 207.000000)">
                <g id="icon">
                    <path d="M11.9645217,3.98154167 C12.5843478,3.98154167 13.0866087,3.47225 13.0866087,2.839 L13.0866087,1.64333333 C13.0866087,1.01008333 12.5871304,0.497958333 11.9645217,0.497958333 C11.3426087,0.497958333 10.8396522,1.00725 10.8396522,1.64333333 L10.8396522,2.839 C10.8396522,3.47225 11.3426087,3.98154167 11.9645217,3.98154167 Z" id="Fill-1"></path>
                    <path d="M15.9568696,2.47916667 L13.696,2.47916667 L13.696,3.06 C13.696,4.0205 12.9293913,4.80320833 11.984,4.80320833 C11.037913,4.80320833 10.272,4.0205 10.272,3.06 L10.272,2.47916667 L5.70643478,2.47916667 L5.70643478,3.06 C5.70643478,4.0205 4.94052174,4.80320833 3.99443478,4.80320833 C3.05182609,4.80320833 2.28243478,4.0205 2.28243478,3.06 L2.28243478,2.47916667 L0,2.44870833 L0,17 L14.834087,17 L15.9756522,16.9971667 L15.9568696,2.47916667 Z M1.14156522,15.8404583 L14.834087,15.8404583 L14.834087,6.54641667 L1.14156522,6.54641667 L1.14156522,15.8404583 Z" id="Fill-2"></path>
                    <path d="M3.97843478,3.98154167 C4.59756522,3.98154167 5.10052174,3.47225 5.10052174,2.839 L5.10052174,1.64333333 C5.10052174,1.00725 4.59756522,0.497958333 3.97843478,0.497958333 C3.35582609,0.497958333 2.85356522,1.00725 2.85356522,1.64333333 L2.85356522,2.839 C2.85356522,3.47225 3.35582609,3.98154167 3.97843478,3.98154167 Z" id="Fill-3"></path>
                    <polygon id="Fill-4" points="5.70921739 9.407375 7.50817391 9.407375 7.50817391 7.79166667 5.70921739 7.79166667"></polygon>
                    <polygon id="Fill-5" points="8.61704348 9.407375 10.416 9.407375 10.416 7.79166667 8.61704348 7.79166667"></polygon>
                    <polygon id="Fill-6" points="11.3126957 9.407375 13.1116522 9.407375 13.1116522 7.79166667 11.3126957 7.79166667"></polygon>
                    <polygon id="Fill-7" points="5.70921739 12.09125 7.50817391 12.09125 7.50817391 10.4755417 5.70921739 10.4755417"></polygon>
                    <polygon id="Fill-8" points="8.61704348 12.09125 10.416 12.09125 10.416 10.4755417 8.61704348 10.4755417"></polygon>
                    <polygon id="Fill-9" points="11.3126957 12.09125 13.1116522 12.09125 13.1116522 10.4755417 11.3126957 10.4755417"></polygon>
                    <polygon id="Fill-10" points="5.70921739 14.8275417 7.50817391 14.8275417 7.50817391 13.2146667 5.70921739 13.2146667"></polygon>
                    <polygon id="Fill-11" points="2.85356522 12.09125 4.65252174 12.09125 4.65252174 10.4755417 2.85356522 10.4755417"></polygon>
                    <polygon id="Fill-12" points="2.85356522 14.8275417 4.65252174 14.8275417 4.65252174 13.2146667 2.85356522 13.2146667"></polygon>
                    <polygon id="Fill-13" points="8.61704348 14.8275417 10.416 14.8275417 10.416 13.2146667 8.61704348 13.2146667"></polygon>
                    <polygon id="Fill-14" points="11.3126957 14.8275417 13.1116522 14.8275417 13.1116522 13.2146667 11.3126957 13.2146667"></polygon>
                </g>
            </g>
        </g>
    </g>
</svg>