
<svg width="20px" height="12px" viewBox="0 0 20 12" version="1.1" xmlns="http://www.w3.org/2000/svg" xmlns:xlink="http://www.w3.org/1999/xlink">
    <g id="Page-1" stroke="none" stroke-width="1" fill="none" fill-rule="evenodd">
        <g id="Artboard-Copy-2" transform="translate(-851.000000, -263.000000)" fill="#1E3546">
            <g id="list" transform="translate(861.000000, 269.000000) scale(1, -1) translate(-861.000000, -269.000000) translate(851.000000, 263.000000)">
                <path d="M19.9211261,0 L0.078873933,0 C0.0394780039,0 0,0.0328135814 0,0.078247771 L0,1.92175223 C0,1.9608354 0.0327478661,2 0.078873933,2 L19.9211261,2 C19.9606041,2 20,1.96726784 20,1.92175223 L20,0.078247771 C20,0.0328135814 19.9673342,0 19.9211261,0 Z" id="Fill-5"></path>
                <path d="M0.0827307163,7 L9.91735537,7 C9.95867769,7 10,6.96726784 10,6.92175223 L10,5.07824777 C10,5.0391646 9.96539256,5 9.91735537,5 L0.0827307163,5 C0.0414084022,5 0,5.03281358 0,5.07824777 L0,6.92175223 C0.00671487603,6.9608354 0.0414084022,7 0.0827307163,7 Z" id="Fill-6"></path>
                <path d="M19.9211261,10 L0.078873933,10 C0.0394780039,10 0,10.0324932 0,10.0779348 L0,11.9217395 C0,11.960829 0.0327478661,12 0.078873933,12 L19.9211261,12 C19.9606041,12 20,11.9675068 20,11.9217395 L20,10.0779348 C20,10.0324932 19.9673342,10 19.9211261,10 Z" id="Fill-7"></path>
            </g>
        </g>
    </g>
</svg>