
<svg width="20px" height="14px" viewBox="0 0 20 14" version="1.1" xmlns="http://www.w3.org/2000/svg" xmlns:xlink="http://www.w3.org/1999/xlink">
    <defs>
        <polygon id="path-1" points="4.69438911e-16 0 24 0 24 17 4.69438911e-16 17"></polygon>
    </defs>
    <g id="Page-1" stroke="none" stroke-width="1" fill="none" fill-rule="evenodd">
        <g id="Artboard-Copy-2" transform="translate(-700.000000, -260.000000)">
            <g id="covered-plate-of-food" transform="translate(698.000000, 260.000000)">
                <mask id="mask-2" fill="white">
                    <use xlink:href="#path-1"></use>
                </mask>
                <g id="Clip-2"></g>
                <path d="M3.82825485,13.9963034 C3.84672207,13.6710014 3.86795937,13.3466235 3.91135734,13.0213215 C3.98707295,12.2413361 4.15697138,11.4659714 4.32963989,10.7035448 C4.43397969,10.3246419 4.54939982,9.94943561 4.66481994,9.58439501 C4.8199446,9.22767179 4.96860572,8.87372104 5.11634349,8.52716351 C5.45521699,7.85160737 5.83010157,7.21671397 6.27793167,6.68994653 C6.38596491,6.55224767 6.49030471,6.41916958 6.59464451,6.28886395 C6.71375808,6.16964816 6.83287165,6.05412899 6.94829178,5.93860981 C7.18651893,5.72235791 7.39519852,5.48762295 7.63711911,5.3138821 C8.11357341,4.95715889 8.53924284,4.62076705 8.97229917,4.41190838 C9.38688827,4.18087002 9.74330563,3.97848043 10.0646353,3.86296125 C10.6962142,3.61066737 11.0526316,3.48405835 11.0526316,3.48405835 C11.0526316,3.48405835 10.7460757,3.72618655 10.212373,4.11617929 C9.93813481,4.30008581 9.64635272,4.58102845 9.30009234,4.87028847 C8.93905817,5.14845864 8.611265,5.54492046 8.22160665,5.92751997 C8.02677747,6.12251634 7.87534626,6.36834114 7.69159741,6.59198627 C7.60110803,6.70380883 7.50784857,6.82302462 7.41735919,6.9385438 C7.33795014,7.06884943 7.25854109,7.19823091 7.1754386,7.32853654 C6.83287165,7.84144168 6.57710065,8.44029309 6.31024931,9.05023434 C6.20221607,9.3644465 6.08679594,9.6897485 5.97414589,10.0141263 C5.8956602,10.3542148 5.80886427,10.6970757 5.71468144,11.03624 C5.57433056,11.7404449 5.43674977,12.4511189 5.37950139,13.1876692 C5.33610342,13.4547495 5.31486611,13.7255264 5.29270545,13.9963034 C11.1283472,13.9963034 15.644506,14 21.9676824,14 C21.9889197,13.7218298 22,13.439963 22,13.1590204 C22,7.83035184 18.1191136,3.44431976 13.1301939,2.86302726 C13.4515235,2.55990494 13.6537396,2.13017361 13.6537396,1.65331045 C13.6537396,0.740246881 12.9141274,0 12.0018467,0 C11.0858726,0 10.3462604,0.740246881 10.3462604,1.65700706 C10.3462604,2.13387022 10.5484765,2.55990494 10.8725762,2.86302726 C5.88088643,3.44431976 2,7.83035184 2,13.1590204 C2,13.439963 2.01015697,13.7218298 2.03231764,13.9963034 L3.82825485,13.9963034 Z" id="Fill-1" fill="#FC6161" mask="url(#mask-2)"></path>
            </g>
        </g>
    </g>
</svg>