<svg width="19px" height="25px" viewBox="0 0 19 25" version="1.1" xmlns="http://www.w3.org/2000/svg" xmlns:xlink="http://www.w3.org/1999/xlink">
    <g id="Brusselslife-home-section-article" stroke="none" stroke-width="1" fill="none" fill-rule="evenodd">
        <g id="Final-header" transform="translate(-882.000000, -1633.000000)" fill="#9A9A9A">
            <path d="M891.499976,1647 C889.018673,1647 887,1644.9813 887,1642.49998 C887,1640.0187 889.018721,1638 891.499976,1638 C893.981279,1638 896,1640.0187 896,1642.49998 C896,1644.9813 893.981279,1647 891.499976,1647 Z M891.499974,1633 C886.261683,1633 882,1637.06162 882,1642.05401 C882,1648.24971 890.501592,1657.34537 890.863555,1657.72955 C891.203539,1658.09044 891.797076,1658.08986 892.136445,1657.72955 C892.498408,1657.34537 901,1648.24971 901,1642.05401 C900.999949,1637.06162 896.738266,1633 891.499974,1633 Z" id="maps-and-flags-copy-4"></path>
        </g>
    </g>
</svg>