
<svg width="30px" height="30px" viewBox="0 0 30 30" version="1.1" xmlns="http://www.w3.org/2000/svg" xmlns:xlink="http://www.w3.org/1999/xlink">
    <g id="Brusselslife-home-section-article" stroke="none" stroke-width="1" fill="none" fill-rule="evenodd">
        <g id="Final-header" transform="translate(-653.000000, -1690.000000)">
            <g id="Group" transform="translate(653.000000, 1690.000000)">
                <g id="Group-15" fill="#519D53">
                    <path d="M5.1277704,-2.42761411e-15 L24.8722296,-2.36921148e-16 C26.6552671,-5.6445982e-16 27.3018396,0.185651222 27.9536914,0.534265408 C28.6055433,0.882879593 29.1171204,1.39445674 29.4657346,2.04630859 C29.8143488,2.69816044 30,3.34473292 30,5.1277704 L30,24.0827559 C30,25.8657934 29.8143488,26.5123659 29.4657346,27.1642177 C29.1171204,27.8160696 28.6055433,28.3276467 27.9536914,28.6762609 C27.3018396,29.0248751 26.6552671,29.2105263 24.8722296,29.2105263 L5.1277704,29.2105263 C3.34473292,29.2105263 2.69816044,29.0248751 2.04630859,28.6762609 C1.39445674,28.3276467 0.882879593,27.8160696 0.534265408,27.1642177 C0.185651222,26.5123659 6.62241153e-16,25.8657934 -1.13977337e-15,24.0827559 L1.38112041e-16,5.1277704 C-8.02470732e-17,3.34473292 0.185651222,2.69816044 0.534265408,2.04630859 C0.882879593,1.39445674 1.39445674,0.882879593 2.04630859,0.534265408 C2.69816044,0.185651222 3.34473292,-2.10007544e-15 5.1277704,-2.42761411e-15 Z" id="Rectangle-28"></path>
                </g>
                <path d="M14.4999852,15.1655997 C12.9741758,15.1655997 11.7328483,13.9394956 11.7328483,12.432405 C11.7328483,10.9253437 12.9742054,9.69923959 14.4999852,9.69923959 C16.0257946,9.69923959 17.2671517,10.9253437 17.2671517,12.432405 C17.2671517,13.9394956 16.0257946,15.1655997 14.4999852,15.1655997 Z M14.4999852,7 C11.4672903,7 9,9.43697384 9,12.432405 C9,16.1498287 13.9219745,21.6072239 14.1315319,21.8377318 C14.3283646,22.0542651 14.6719913,22.0539136 14.8684681,21.8377318 C15.0780255,21.6072239 20,16.1498287 20,12.432405 C19.9999703,9.43697384 17.5326801,7 14.4999852,7 Z" id="maps-and-flags-copy-5" fill="#FFFFFF"></path>
            </g>
        </g>
    </g>
</svg>