
<svg width="21px" height="16px" viewBox="0 0 21 16" version="1.1" xmlns="http://www.w3.org/2000/svg" xmlns:xlink="http://www.w3.org/1999/xlink">
    <defs>
        <polygon id="path-1" points="0.0484615385 0.744 20.6785385 0.744 20.6785385 15.2008 0.0484615385 15.2008"></polygon>
    </defs>
    <g id="Page-1" stroke="none" stroke-width="1" fill="none" fill-rule="evenodd">
        <g id="About-page" transform="translate(-761.000000, -666.000000)">
            <g id="Group-14" transform="translate(434.000000, 655.000000)">
                <g id="covered-plate-of-food-2" transform="translate(327.000000, 11.000000)">
                    <g id="covered-plate-of-food">
                        <mask id="mask-2" fill="white">
                            <use xlink:href="#path-1"></use>
                        </mask>
                        <g id="Clip-2"></g>
                        <path d="M3.18957692,12.86 C3.20573077,12.5784 3.22430769,12.2976 3.26226923,12.016 C3.3285,11.3408 3.47711538,10.6696 3.62815385,10.0096 C3.71942308,9.6816 3.82038462,9.3568 3.92134615,9.0408 C4.05703846,8.732 4.18707692,8.4256 4.31630769,8.1256 C4.61273077,7.5408 4.94065385,6.9912 5.33238462,6.5352 C5.42688462,6.416 5.51815385,6.3008 5.60942308,6.188 C5.71361538,6.0848 5.81780769,5.9848 5.91876923,5.8848 C6.12715385,5.6976 6.30969231,5.4944 6.52130769,5.344 C6.93807692,5.0352 7.31042308,4.744 7.68923077,4.5632 C8.05188462,4.3632 8.36365385,4.188 8.64473077,4.088 C9.19719231,3.8696 9.50896154,3.76 9.50896154,3.76 C9.50896154,3.76 9.24080769,3.9696 8.77396154,4.3072 C8.53407692,4.4664 8.27884615,4.7096 7.97596154,4.96 C7.66015385,5.2008 7.37342308,5.544 7.03257692,5.8752 C6.86215385,6.044 6.72969231,6.2568 6.56896154,6.4504 C6.48980769,6.5472 6.40823077,6.6504 6.32907692,6.7504 C6.25961538,6.8632 6.19015385,6.9752 6.11746154,7.088 C5.81780769,7.532 5.59407692,8.0504 5.36065385,8.5784 C5.26615385,8.8504 5.16519231,9.132 5.06665385,9.4128 C4.998,9.7072 4.92207692,10.004 4.83969231,10.2976 C4.71692308,10.9072 4.59657692,11.5224 4.5465,12.16 C4.50853846,12.3912 4.48996154,12.6256 4.47057692,12.86 C9.57519231,12.86 13.5256154,12.8632 19.0566923,12.8632 C19.0752692,12.6224 19.0849615,12.3784 19.0849615,12.1352 C19.0849615,7.5224 15.6902308,3.7256 11.3262692,3.2224 C11.6073462,2.96 11.7842308,2.588 11.7842308,2.1752 C11.7842308,1.3848 11.1372692,0.744 10.3392692,0.744 C9.53803846,0.744 8.89107692,1.3848 8.89107692,2.1784 C8.89107692,2.5912 9.06796154,2.96 9.35146154,3.2224 C4.98507692,3.7256 1.59034615,7.5224 1.59034615,12.1352 C1.59034615,12.3784 1.59923077,12.6224 1.61861538,12.86 L3.18957692,12.86 Z" id="Fill-1" fill="#FFFFFF" mask="url(#mask-2)"></path>
                        <polygon id="Fill-3" fill="#FFFFFF" mask="url(#mask-2)" points="0.0484615385 15.2008 20.6785385 15.2008 20.6785385 13.3912 0.0484615385 13.3912"></polygon>
                    </g>
                </g>
            </g>
        </g>
    </g>
</svg>