
<svg width="37px" height="38px" viewBox="0 0 37 38" version="1.1" xmlns="http://www.w3.org/2000/svg" xmlns:xlink="http://www.w3.org/1999/xlink">
    <defs>
        <polygon id="path-1" points="0.00447580645 2.78038859e-05 36.9819849 2.78038859e-05 36.9819849 37.8914088 0.00447580645 37.8914088"></polygon>
    </defs>
    <g id="Brusselslife-home-section-article" stroke="none" stroke-width="1" fill="none" fill-rule="evenodd">
        <g id="Final-header" transform="translate(-696.000000, -400.000000)">
            <g id="make-up" transform="translate(696.000000, 400.000000)">
                <path d="M17.6215385,23.3885529 C17.737131,23.4393574 17.8590572,23.4634146 17.9790667,23.4634146 C18.2904245,23.4634146 18.5891147,23.301701 18.7318759,23.0251585 L18.8701368,22.757378 C19.0679024,22.3741537 18.8914718,21.9156834 18.4760225,21.7332944 C18.0605731,21.5509823 17.5634506,21.7135414 17.365685,22.0967657 L17.2274242,22.3644693 C17.0296586,22.7476936 17.2060891,23.206164 17.6215385,23.3885529" id="Fill-1" fill="#0A090B"></path>
                <g id="Group-5">
                    <mask id="mask-2" fill="white">
                        <use xlink:href="#path-1"></use>
                    </mask>
                    <g id="Clip-3"></g>
                    <path d="M9.86684073,17.4671762 C9.57561492,17.1781701 9.10341734,17.1781701 8.81219153,17.4671762 C8.19385887,18.0807959 7.18784677,18.0807959 6.56951411,17.4671762 C6.27828831,17.1781701 5.80609073,17.1781701 5.51479032,17.4671762 C5.22363911,17.7561823 5.22363911,18.2247808 5.51479032,18.5138609 C6.11477218,19.1091217 6.9027379,19.4068631 7.69085282,19.4068631 C8.47881855,19.4068631 9.26685887,19.1091957 9.86676613,18.5138609 C10.1580665,18.2248548 10.1580665,17.7562563 9.86684073,17.4671762" id="Fill-2" fill="#0A090B" mask="url(#mask-2)"></path>
                    <path d="M33.2873931,10.9655754 C32.9547661,10.0034308 32.5441109,9.06497532 32.0546815,8.16619893 C30.8305484,5.91811052 29.0619335,4.07236538 26.8437238,2.70158518 C28.9115464,0.981169779 32.0072379,1.08414301 33.9505585,3.01272571 C36.0048044,5.05131431 36.0048044,8.36844398 33.9505585,10.4069586 C33.7437762,10.6122388 33.5221492,10.7987158 33.2873931,10.9655754 Z M32.1111512,21.8065613 C30.940877,25.4343133 28.4283831,28.2905433 24.8403528,30.0750672 C23.0260847,30.155906 21.4436633,29.4119225 20.1354597,27.861698 C19.6079859,27.2367519 19.2261996,26.5934468 18.9762258,26.1064893 C19.4017258,25.974349 19.8904093,25.7390874 20.330381,25.320828 C21.1563911,24.535759 21.5692843,23.3630042 21.557498,21.8354323 C21.5381028,19.3245437 19.1765927,18.2697159 16.6764819,17.1528524 C14.0760383,15.9912019 11.1286452,14.6746103 9.45446976,11.5669064 C8.41436694,9.63632498 8.16954032,7.80064768 8.72394355,6.19120055 C8.72625605,6.18505621 8.72841935,6.17883784 8.73058266,6.1726935 C8.85210081,5.82402067 9.01061895,5.48571179 9.20755444,5.1596916 C10.577748,2.89080126 13.6206996,1.48130431 17.1489778,1.48130431 C17.1561391,1.48130431 17.1632258,1.48123028 17.1704617,1.48100819 C17.1936613,1.48026791 19.5439819,1.42452468 22.4055141,2.31397351 C26.2134556,3.49775848 29.0185181,5.70342873 30.7426734,8.86976296 C32.9217198,12.8718015 33.4333044,17.7079159 32.1111512,21.8065613 Z M35.0051331,1.96618902 C32.3777601,-0.641158251 28.1084375,-0.648709127 25.4705464,1.94190777 C24.6471472,1.53623323 23.7730222,1.18822666 22.8512298,0.901737519 C19.8274496,-0.0381985518 17.3536714,-0.00333126905 17.139131,0.00133250762 C13.093748,0.00399752287 9.56494758,1.68850924 7.92814516,4.39890377 C7.7121129,4.75660804 7.53203629,5.12734127 7.38769153,5.50880859 C6.61665927,6.23732012 3.13754032,9.80555345 3.13754032,14.8650849 C3.13754032,18.2349967 1.50416935,19.9944249 0.530606855,20.7432942 C0.166798387,21.0230468 -0.0301370968,21.4624782 0.00380443548,21.91864 C0.037671371,22.3750238 0.297641129,22.7812166 0.699195565,23.0051519 C1.0661371,23.2097658 1.47865726,23.4061626 1.87760081,23.596119 C2.23044355,23.764089 2.73173387,24.0027559 2.9761129,24.1580671 L2.9761129,25.4762873 C2.9761129,25.65662 2.9415,25.832733 2.87309476,25.9998887 L2.68816935,26.4516088 C2.43491331,27.0701144 2.52808468,27.7781201 2.93008669,28.3109751 L2.93008669,28.473319 C2.93008669,28.9535399 3.14313508,29.3980052 3.49791734,29.6995221 L3.49791734,30.5684651 C3.49791734,32.4306445 5.02446573,33.9455576 6.90094758,33.9455576 L9.10289516,33.9455576 C9.51481855,33.9455576 9.84863911,33.6142814 9.84863911,33.2054977 C9.84863911,32.796788 9.51481855,32.4655118 9.10289516,32.4655118 L6.90094758,32.4655118 C5.84696976,32.4655118 4.98940524,31.6144096 4.98940524,30.5684651 L4.98940524,29.2916267 C4.98940524,28.9950697 4.81096976,28.7272357 4.53622984,28.6109374 L4.50400403,28.5973162 C4.453875,28.5760701 4.4215,28.5274336 4.4215,28.473319 L4.4215,28.0555778 C4.4215,27.8896066 4.36525403,27.7284472 4.2618629,27.5979355 L4.1301996,27.4319643 C4.0352379,27.3121866 4.0121875,27.1499168 4.07,27.008671 L4.2549254,26.5568769 C4.3960625,26.2119795 4.4676754,25.848427 4.4676754,25.4762132 L4.4676754,23.900671 C4.4676754,23.1875574 3.73565726,22.8389586 2.52278831,22.2616126 C2.20440927,22.1100029 1.87685484,21.9540254 1.58719556,21.8002689 C2.7865625,20.8288708 4.62910282,18.7098876 4.62910282,14.8650109 C4.62910282,12.082883 5.87703226,9.76454183 6.95965524,8.27650095 C7.01881048,9.56599819 7.41186089,10.9144959 8.13925403,12.2646963 C10.0531089,15.8170876 13.3861673,17.3060908 16.0642661,18.5024606 C18.6123427,19.6407182 20.0545222,20.3571631 20.0660847,21.8466845 C20.0745141,22.9404512 19.8210343,23.7451378 19.3127319,24.2384617 C18.7257298,24.8081087 17.9467157,24.7934511 17.9420161,24.7933771 C17.691744,24.7759805 17.4571371,24.8843578 17.3046613,25.081865 C17.1521855,25.2794463 17.117498,25.5401736 17.1997036,25.7752131 C17.2215605,25.837841 17.7497802,27.3243273 18.9592923,28.7728371 C20.4709214,30.5831967 22.3790323,31.5384567 24.5066069,31.5598508 L26.5104254,37.3900158 C26.616129,37.697677 26.9058629,37.8914088 27.2161109,37.8914088 C27.2958548,37.8914088 27.3771653,37.8786019 27.4569093,37.8515076 C27.846752,37.7195153 28.0549516,37.2990352 27.9219456,36.9122378 L25.9484879,31.1705365 C29.6688528,29.1920588 32.2845887,26.1229976 33.5315484,22.2576891 C34.5255504,19.1765614 34.5730685,15.7192963 33.7331835,12.4448069 C34.193371,12.1672752 34.6198407,11.8357769 35.0051331,11.4534952 C37.6409355,8.8378568 37.6409355,4.58190149 35.0051331,1.96618902 Z" id="Fill-4" fill="#0A090B" mask="url(#mask-2)"></path>
                </g>
                <path d="M9.84346019,26.5296117 L9.87907981,26.4519957 C10.2991606,25.5360229 11.2046488,24.9527857 12.1756078,24.9527857 C12.2429534,24.9527857 12.3107317,24.9556162 12.378582,24.9613517 C13.8751107,25.0870866 15.035993,26.3512141 15.0787509,27.9015971 L15.1480434,30.4048244 L12.9166978,31.7356927 L10.89496,30.37421 C9.66896732,29.5485904 9.21694427,27.8958616 9.84346019,26.5296117 Z M18.8545026,34.6591039 L16.59619,30.6181566 L16.5198313,27.8589158 C16.4559467,25.5481643 14.7257995,23.6643007 12.4953913,23.4768157 C10.8553746,23.3387158 9.28061253,24.2783758 8.57622376,25.8144572 L8.54060414,25.8920731 C7.60692309,27.9281892 8.28052324,30.3913421 10.1075789,31.6216523 L12.3557249,33.1356109 L14.811748,37.5300015 C14.9452134,37.7688829 15.1874845,37.9025135 15.4366055,37.902439 C15.5588226,37.902439 15.6828424,37.8702604 15.7963348,37.8025512 C16.1411385,37.5969657 16.2592457,37.1415491 16.0601652,36.7854243 L13.8783554,32.881534 L15.6169389,31.8445189 L17.6060134,35.4036066 C17.8049496,35.7597313 18.2457965,35.8816674 18.5906723,35.6760819 C18.935476,35.4706453 19.0535831,35.0152287 18.8545026,34.6591039 Z" id="Fill-6" fill="#0A090B"></path>
                <path d="M19.8537037,36.097561 C19.6154666,36.097561 19.3834586,36.1941509 19.2156364,36.3619647 C19.0478143,36.5298687 18.9512195,36.7626776 18.9512195,37 C18.9512195,37.2373224 19.0478143,37.4701313 19.2156364,37.6380353 C19.3834586,37.8058491 19.6154666,37.902439 19.8537037,37.902439 C20.091038,37.902439 20.3238585,37.8058491 20.4916806,37.6380353 C20.6595931,37.4701313 20.7560976,37.2373224 20.7560976,37 C20.7560976,36.7626776 20.6595931,36.5298687 20.4916806,36.3619647 C20.3238585,36.1940607 20.091038,36.097561 19.8537037,36.097561" id="Fill-7" fill="#0A090B"></path>
                <path d="M12.5830298,3.67280395 C11.3759739,4.261624 10.5055271,5.25418851 10.1317451,6.46776561 C9.7572784,7.68376456 9.89789166,9.04929271 10.5383871,10.4163833 C10.6617489,10.6795828 10.8981352,10.8292683 11.1425312,10.8292683 C11.2514483,10.8292683 11.3618715,10.7995031 11.4646273,10.7368477 C11.7979505,10.5334911 11.9237084,10.0602945 11.7455115,9.67990906 C11.2842398,8.69531319 11.1757335,7.78884125 11.4230731,6.98557101 C11.6680852,6.19003505 12.2710655,5.52355982 13.1210432,5.10903425 C13.4685373,4.93950533 13.6298935,4.48060537 13.481339,4.08389206 C13.3327162,3.68741313 12.9305924,3.50327503 12.5830298,3.67280395" id="Fill-8" fill="#0A090B"></path>
                <path d="M16.2659274,3.6097561 L16.2166094,3.6097561 C15.7304751,3.61264477 15.3385732,4.01913501 15.3414795,4.51752111 C15.3442976,5.01410179 15.7378728,5.41463415 16.2217174,5.41463415 C16.2234787,5.41463415 16.2252401,5.41463415 16.2270014,5.41463415 L16.2659274,5.41454388 C16.7521499,5.41454388 17.1463415,5.01049095 17.1463415,4.51210485 C17.1463415,4.01371875 16.7521499,3.6097561 16.2659274,3.6097561" id="Fill-9" fill="#0A090B"></path>
            </g>
        </g>
    </g>
</svg>