
<svg width="32px" height="33px" viewBox="0 0 32 33" version="1.1" xmlns="http://www.w3.org/2000/svg" xmlns:xlink="http://www.w3.org/1999/xlink">
    <defs>
        <polygon id="path-1" points="0 0 32 0 32 33 0 33"></polygon>
    </defs>
    <g id="Brusselslife-home-section-article" stroke="none" stroke-width="1" fill="none" fill-rule="evenodd">
        <g id="Final-header" transform="translate(-486.000000, -397.000000)">
            <g id="fork" transform="translate(486.000000, 397.000000)">
                <mask id="mask-2" fill="white">
                    <use xlink:href="#path-1"></use>
                </mask>
                <g id="Clip-2"></g>
                <path d="M23.8931849,12.9558952 L25.7490393,12.8310218 C25.7520468,12.8306939 25.7553628,12.8303659 25.7586787,12.8300379 C27.0813586,12.7115599 28.2685471,11.9748643 29.0158706,10.8084502 L30.4832186,8.52006139 C31.7600921,6.52758071 32.254709,4.12095987 31.8757649,1.74418401 C31.8013487,1.27724119 31.576635,0.847112651 31.2434973,0.533248363 C30.9103597,0.219056108 30.4819847,0.0335908468 30.0371071,0.0107971498 C27.7712312,-0.104483203 25.5842442,0.706496858 23.8772221,2.29344652 L21.9161826,4.11653232 C20.9166924,5.04533447 20.3711795,6.38663695 20.4187596,7.79714044 C20.4190681,7.80033811 20.4190681,7.80386376 20.4193765,7.80771737 L20.5251015,9.78133996 C20.5663581,10.5505862 20.3010047,11.3099935 19.798522,11.8627817 L4.47727411,28.5977828 C4.06702125,29.0525908 3.85526291,29.6764658 3.88086515,30.3547833 C3.90947489,31.1013998 4.23150797,31.8348157 4.74301309,32.316845 C5.20508737,32.752139 5.84005392,33 6.47478914,33 C6.5425734,33 6.610589,32.9971303 6.67837326,32.9913909 C7.31488212,32.9371943 7.87219367,32.6390725 8.24959546,32.14868 L22.0354798,13.9737404 C22.4926958,13.3754468 23.1699215,13.0045983 23.8931849,12.9558952 Z M21.2995694,13.3402724 L7.51491895,31.5135722 C7.304086,31.7874245 6.98020216,31.9559175 6.60280037,31.9878943 C6.1539899,32.0260204 5.69368927,31.8672025 5.37134774,31.5635871 C5.04869774,31.2593159 4.84542207,30.7922911 4.8273,30.3141154 C4.81195408,29.912192 4.93032591,29.5499526 5.1580471,29.2972541 L20.4783696,12.5635648 C21.1652347,11.8080112 21.5266737,10.7731937 21.470688,9.72427372 L21.3649631,7.75548864 C21.3291045,6.65155218 21.7568625,5.60164826 22.5391191,4.87429975 L24.5004671,3.05121395 C26.0225669,1.63661088 27.9730417,0.914345857 29.9919176,1.01650754 C30.2217209,1.02806837 30.4431187,1.12416266 30.6154711,1.28650626 C30.7877465,1.44860388 30.9037278,1.67112939 30.9422854,1.91202105 C31.2799728,4.03134292 30.838951,6.17657417 29.7005764,7.95251474 L28.233614,10.2415595 C27.6480011,11.1547012 26.7189943,11.7318409 25.6839541,11.8266233 L23.8331893,11.9508408 C22.846963,12.0175 21.9240483,12.5235529 21.2995694,13.3402724 Z" id="Fill-1" fill="#000000" mask="url(#mask-2)"></path>
                <path d="M31.3010677,28.6595024 L20.9985073,19.1258393 C20.8048591,18.9463013 20.5045653,18.96068 20.3278537,19.1574254 C20.1514514,19.354485 20.1653717,19.6595817 20.3592519,19.8391197 L30.6587962,29.3703471 C30.9037952,29.6004857 31.0427671,29.9396828 31.050346,30.3251591 C31.0593942,30.7837078 30.8820639,31.2425707 30.5763566,31.5531675 C30.2709586,31.8637642 29.8198605,32.0442451 29.3676798,32.0347378 C28.9882717,32.0270377 28.6544143,31.8858431 28.4302959,31.6397543 L19.2500285,21.3998037 C19.0735489,21.2025083 18.7730231,21.1886796 18.5793749,21.3679033 C18.3854175,21.5474412 18.3714971,21.8525379 18.5479767,22.0495976 L27.7303322,32.2919054 C28.1339462,32.7354467 28.7087811,32.9867998 29.3489646,32.9993714 C29.3655144,32.9996857 29.3821415,33 29.3987686,33 C30.0866681,33 30.7747995,32.7164321 31.2478609,32.2357261 C31.7324452,31.7431556 32.0137145,31.0218608 31.9994848,30.3061446 C31.9871111,29.6558007 31.7397148,29.0720076 31.3010677,28.6595024 Z" id="Fill-3" fill="#000000" mask="url(#mask-2)"></path>
                <path d="M5.71606432,12.8453984 C6.50026553,13.5893355 7.51894012,14.0136252 8.58467914,14.0396864 C8.58799679,14.0400042 8.59131445,14.0400042 8.5946321,14.0400042 L10.4550654,14.0459634 C11.180166,14.0484265 11.8772595,14.365293 12.3664208,14.914327 L13.1858818,15.8407722 C13.2796248,15.9466062 13.4073931,16 13.5363959,16 C13.6500449,16 13.764234,15.9581272 13.854968,15.8731104 C14.0487808,15.6915557 14.0626687,15.383032 13.8862929,15.1837589 L13.0656746,14.2560424 C12.3972056,13.5059078 11.4468901,13.0738315 10.4580744,13.0700971 L8.60273335,13.0642175 C7.77841166,13.0428441 6.99035271,12.7175553 6.37944114,12.1483398 L0.987942086,5.54793408 C0.933085036,5.4806357 0.937251394,5.3828266 0.997586434,5.32045443 C1.03917286,5.27731037 1.08801184,5.27111288 1.11331861,5.27111288 C1.13862538,5.27111288 1.18715573,5.27731037 1.22905078,5.32045443 L6.13648073,10.3745865 C6.62139854,10.8739611 7.41107774,10.8739611 7.89599555,10.3742687 L8.4728047,9.78050154 L8.4728047,9.78018372 L9.49664867,8.72589542 C9.49664867,8.72589542 9.49695728,8.72589542 9.49695728,8.7255776 L10.0737664,8.13149262 C10.5587614,7.63211799 10.5587614,6.81921396 10.0737664,6.31952151 L5.16633649,1.2657867 C5.10245233,1.20031579 5.10245233,1.09321046 5.16633649,1.02773954 C5.22659438,0.965367375 5.32188053,0.96099735 5.38723063,1.01780767 L11.7965556,6.5700431 C12.3495239,7.19884992 12.665087,8.01080049 12.6862274,8.85930035 L12.6916282,10.7702724 C12.6949459,11.7883292 13.114745,12.7672147 13.844475,13.456884 L14.7226507,14.280594 C14.9161549,14.4618308 15.2157469,14.4475289 15.391737,14.2482558 C15.567727,14.0490621 15.5539163,13.7405384 15.3604121,13.5593015 L14.484011,12.7367835 C13.9493283,12.231847 13.6416351,11.5135738 13.6391661,10.7671736 L13.6334566,8.8512754 C13.6334566,8.84785883 13.6334566,8.84412445 13.633148,8.84070788 C13.6075326,7.74319607 13.1958347,6.6941518 12.4734345,5.88688908 C12.4598552,5.87171317 12.4454273,5.85709345 12.4299963,5.84374502 L5.99698488,0.271010194 C5.55241902,-0.114425976 4.90717358,-0.0855838133 4.49632436,0.337434568 C4.06325457,0.783812717 4.06325457,1.50939571 4.49632436,1.95545604 L9.40383146,7.00950867 C9.51956364,7.12869116 9.51956364,7.32264079 9.40383146,7.44182328 L9.16210553,7.69075578 L3.69252584,2.05819134 C3.50750867,1.86757882 3.20760803,1.86757882 3.02289948,2.05819134 C2.83780515,2.24872442 2.83780515,2.55756597 3.02289948,2.74809905 L8.49240202,8.38074293 L8.1380301,8.74544135 L2.66845041,3.11311528 C2.48343324,2.92250275 2.1835326,2.92250275 1.99843827,3.11311528 C1.81342111,3.30333053 1.81342111,3.61248991 1.99843827,3.80278462 L7.46770935,9.43534905 L7.22629203,9.68459936 C7.11055986,9.80378185 6.92222503,9.80378185 6.80649286,9.68459936 L1.89867714,4.63054673 C1.68897044,4.41450861 1.40982444,4.29532612 1.11331861,4.29532612 C0.816427004,4.29532612 0.537358156,4.41450861 0.327574302,4.63054673 C-0.0831977608,5.05388293 -0.110973483,5.71804722 0.263072903,6.1761847 L5.67478651,12.8007447 C5.68743989,12.8168741 5.70155922,12.8317322 5.71606432,12.8453984 Z" id="Fill-4" fill="#000000" mask="url(#mask-2)"></path>
            </g>
        </g>
    </g>
</svg>