
<svg width="28px" height="36px" viewBox="0 0 28 36" version="1.1" xmlns="http://www.w3.org/2000/svg" xmlns:xlink="http://www.w3.org/1999/xlink">
    <defs>
        <polygon id="path-1" points="0 0 28 0 28 36 0 36"></polygon>
    </defs>
    <g id="Brusselslife-home-section-article" stroke="none" stroke-width="1" fill="none" fill-rule="evenodd">
        <g id="Final-header" transform="translate(-917.000000, -400.000000)">
            <g id="cocktail" transform="translate(917.000000, 400.000000)">
                <mask id="mask-2" fill="white">
                    <use xlink:href="#path-1"></use>
                </mask>
                <g id="Clip-2"></g>
                <path d="M23.2340679,12 C22.6321456,12.003225 22.0395317,11.850075 21.5135664,11.5554 L23.7011292,8.7726 C23.9053941,8.512875 23.8619795,8.135475 23.6040979,7.92975 C23.4988005,7.845675 23.3684076,7.8 23.2340679,7.8 L19.7090654,7.8 C20.0380636,5.839575 21.8827028,4.518975 23.8292137,4.850325 C25.7757246,5.18175 27.0869517,7.039575 26.7579534,9 C26.4672316,10.7319 24.9780267,11.9997 23.2340679,12 Z M15.4262796,9 L14.2157329,13.2 L5.12881314,13.2 L1.82721369,9 L15.4262796,9 Z M13.6783741,19.3674 L15.1105366,14.4 L17.7580119,14.4 L11.9149792,21.8334 L6.07187196,14.4 L13.8702028,14.4 L12.5345503,19.0326 L13.6783741,19.3674 Z M22.0026702,9 L18.7010707,13.2 L15.4560667,13.2 L16.6672092,9 L22.0026702,9 Z M23.2340679,3.6 C20.8344211,3.60405 18.8112829,5.402475 18.509242,7.8 L17.0127393,7.8 L18.9155377,1.2 L20.8511019,1.2 L20.8511019,0 L18.4681358,0 C18.2031798,7.5e-05 17.9700959,0.1764 17.896224,0.4326 L15.7724055,7.8 L0.595890447,7.8 C0.26681773,7.799925 7.4467689e-05,8.0685 0,8.39985 C0,8.535225 0.0453508226,8.66655 0.128829102,8.7726 L11.3192377,23.0088 L11.3192377,34.8 L6.55330557,34.8 L6.55330557,36 L17.2766528,36 L17.2766528,34.8 L12.5107207,34.8 L12.5107207,23.0088 L20.7748469,12.4956 C21.513343,12.956625 22.3651044,13.2006 23.2340679,13.2 C25.8662028,13.2 28,11.05095 28,8.4 C28,5.74905 25.8662028,3.6 23.2340679,3.6 Z" id="Fill-1" fill="#0A090B" mask="url(#mask-2)"></path>
            </g>
        </g>
    </g>
</svg>