
<svg width="31px" height="37px" viewBox="0 0 31 37" version="1.1" xmlns="http://www.w3.org/2000/svg" xmlns:xlink="http://www.w3.org/1999/xlink">
    <defs>
        <polygon id="path-1" points="0.010877193 0.0703011906 30.9399028 0.0703011906 30.9399028 31 0.010877193 31"></polygon>
    </defs>
    <g id="Brusselslife-home-section-article" stroke="none" stroke-width="1" fill="none" fill-rule="evenodd">
        <g id="Final-header" transform="translate(-806.000000, -399.000000)">
            <g id="shopping-bag" transform="translate(806.000000, 399.000000)">
                <path d="M20.3535863,5 C20.0374357,5 19.7610168,4.78648367 19.7148524,4.49061849 C19.4219733,2.60684503 17.6355618,1.18606671 15.5594875,1.18606671 C14.2243142,1.18606671 12.9561172,1.77814454 12.1669706,2.76963169 C11.9567711,3.03439889 11.5518865,3.09155664 11.2648725,2.89888812 C10.9769125,2.70552467 10.9139094,2.33460737 11.1244873,2.07018763 C12.1554295,0.773627519 13.8135644,0 15.5594875,0 C18.2742956,0 20.6105178,1.85875608 20.9934554,4.3233148 C21.0437821,4.64732453 20.7983918,4.94770674 20.4455367,4.99391939 C20.4145082,4.99791522 20.3834796,5 20.3535863,5" id="Fill-1" fill="#0A090B"></path>
                <path d="M28.3913612,12 L1.60861495,12 C1.38926988,12 1.18722276,11.8891818 1.07915519,11.7098975 C0.971087615,11.5307805 0.973762555,11.311153 1.08664502,11.1343796 L2.9127373,8.27738021 C3.02258816,8.1051266 3.22089037,8 3.43470723,8 L4.42389999,8 C4.75987244,8 5.03253798,8.25595313 5.03253798,8.57133291 C5.03253798,8.8867127 4.75987244,9.14266583 4.42389999,9.14266583 L3.77923948,9.14266583 L2.68358412,10.856832 L27.316392,10.856832 L26.2207366,9.14266583 L24.8153232,9.14266583 C24.4791725,9.14266583 24.2065069,8.8867127 24.2065069,8.57133291 C24.2065069,8.25595313 24.4791725,8 24.8153232,8 L26.5652689,8 C26.7792641,8 26.977388,8.1051266 27.0872388,8.27738021 L28.9133311,11.1343796 C29.0262136,11.3108182 29.0288885,11.5307805 28.9209993,11.7098975 C28.8129317,11.8891818 28.6107062,12 28.3913612,12" id="Fill-2" fill="#0A090B"></path>
                <path d="M24.1619832,13 C24.1166145,13 24.0707182,12.9945429 24.0244703,12.982876 C23.701614,12.9023365 23.5009718,12.5566567 23.5767622,12.2115415 L24.6786236,7.16935852 L17.6652912,5.41386217 L17.1848754,7.6110082 C17.1096126,7.95649982 16.7862287,8.17102076 16.4637241,8.09010497 C16.140692,8.00956553 15.9402256,7.66388573 16.016016,7.31877047 L16.6328896,4.49612653 C16.6692901,4.3299669 16.7656546,4.18657658 16.9007056,4.09662833 C17.0359324,4.00686825 17.1992949,3.97807728 17.3542167,4.01684159 L25.5364085,6.06495203 C25.6915062,6.10371634 25.8256779,6.20646058 25.9097331,6.35173266 C25.9937883,6.49625203 26.0205171,6.6708796 25.9841167,6.83666288 L24.7452699,12.5039674 C24.6810855,12.8001568 24.4343712,13 24.1619832,13" id="Fill-3" fill="#0A090B"></path>
                <path d="M5.53876236,13 C5.23314664,13 4.96942551,12.7554895 4.93254394,12.4229015 L4.00423841,4.02242282 C3.96485033,3.66398605 4.20440149,3.339057 4.53920021,3.29655008 L14.760408,2.00449277 C14.9220782,1.98419667 15.0830323,2.03321367 15.2105064,2.14043834 C15.3379806,2.24766301 15.4201585,2.40486204 15.4391363,2.57699594 L15.9957616,7.61368346 C16.0351497,7.97212022 15.7955985,8.29704927 15.4607998,8.33936472 C15.1240317,8.37995692 14.8218176,8.1254898 14.7820715,7.76686156 L14.29724,3.37926625 L5.28972225,4.51776251 L6.14659211,12.2697234 C6.1859802,12.6281602 5.94642903,12.9528977 5.61145128,12.9954047 C5.58710228,12.9982767 5.56257425,13 5.53876236,13" id="Fill-4" fill="#0A090B"></path>
                <g id="Group-8" transform="translate(0.000000, 6.000000)">
                    <mask id="mask-2" fill="white">
                        <use xlink:href="#path-1"></use>
                    </mask>
                    <g id="Clip-6"></g>
                    <path d="M20.0883626,6.49000592 C19.809,6.49000592 19.5551988,6.2975858 19.4872164,6.01051479 L18.4036667,1.45149704 L9.63846199,3.58389349 L10.1078129,5.55835503 C10.1875789,5.8945858 9.98308772,6.23265089 9.65078947,6.31354438 C9.31849123,6.39498817 8.98438012,6.18771006 8.90461404,5.85111243 L8.29077778,3.26802367 C8.21083041,2.9317929 8.41550292,2.59372781 8.74780117,2.51301775 L18.7162047,0.0874970414 C18.876462,0.0489763314 19.044152,0.0757573964 19.183924,0.161970414 C19.3238772,0.248733728 19.4241287,0.388325444 19.4623801,0.54956213 L20.6907778,5.71739053 C20.7705439,6.0536213 20.5660526,6.39168639 20.2337544,6.47257988 C20.184807,6.48450296 20.1362222,6.49000592 20.0883626,6.49000592" id="Fill-5" fill="#0A090B" mask="url(#mask-2)"></path>
                    <path d="M1.26991228,29.7477101 L29.6693567,29.7477101 L28.4951637,6.58153846 L2.44410526,6.58153846 L1.26991228,29.7477101 Z M30.3207193,31 L0.618730994,31 C0.449046784,31 0.286976608,30.9295621 0.170046784,30.8051953 C0.0534795322,30.6810118 -0.00779532164,30.5131716 0.000725146199,30.3418462 L1.23836842,5.92338462 C1.25540936,5.59063905 1.52697661,5.32961538 1.85655556,5.32961538 L29.0834386,5.32961538 C29.4128363,5.32961538 29.6845848,5.59063905 29.7016257,5.92338462 L30.9390877,30.3418462 C30.9477895,30.5135385 30.8865146,30.6810118 30.7699474,30.8051953 C30.6522924,30.9295621 30.4902222,31 30.3207193,31 Z" id="Fill-7" fill="#0A090B" mask="url(#mask-2)"></path>
                </g>
                <path d="M20,15.3333984 C19.6322266,15.3333984 19.3332031,15.6324219 19.3332031,16 C19.3332031,16.3677734 19.6322266,16.6667969 20,16.6667969 C20.3675781,16.6667969 20.6666016,16.3677734 20.6666016,16 C20.6666016,15.6324219 20.3675781,15.3333984 20,15.3333984 Z M20,18 C18.896875,18 18,17.103125 18,16 C18,14.8970703 18.896875,14 20,14 C21.1029297,14 22,14.8970703 22,16 C22,17.103125 21.1029297,18 20,18 Z" id="Fill-9" fill="#0A090B"></path>
                <path d="M11,15.3333984 C10.6322266,15.3333984 10.3332031,15.6324219 10.3332031,16 C10.3332031,16.3677734 10.6322266,16.6667969 11,16.6667969 C11.3675781,16.6667969 11.6666016,16.3677734 11.6666016,16 C11.6666016,15.6324219 11.3675781,15.3333984 11,15.3333984 Z M11,18 C9.896875,18 9,17.103125 9,16 C9,14.8970703 9.896875,14 11,14 C12.1029297,14 13,14.8970703 13,16 C13,17.103125 12.1029297,18 11,18 Z" id="Fill-10" fill="#0A090B"></path>
                <path d="M15.5000948,25 C12.4672135,25 10,22.712207 10,19.9000586 L10,16.6001172 C10,16.2689453 10.2898478,16 10.6471815,16 C11.0043256,16 11.2941734,16.2689453 11.2941734,16.6001172 L11.2941734,19.9000586 C11.2941734,22.0503906 13.180933,23.8001172 15.5000948,23.8001172 C17.819067,23.8001172 19.7058266,22.0503906 19.7058266,19.9000586 L19.7058266,16.8314453 C19.6736002,16.7602539 19.6559705,16.6820313 19.6559705,16.6001172 C19.6559705,16.2689453 19.9460079,16 20.303152,16 L20.3530081,16 C20.7101522,16 21,16.2689453 21,16.6001172 L21,19.9000586 C21,22.712207 18.5327865,25 15.5000948,25" id="Fill-11" fill="#0A090B"></path>
            </g>
        </g>
    </g>
</svg>