
<svg width="34px" height="34px" viewBox="0 0 34 34" version="1.1" xmlns="http://www.w3.org/2000/svg" xmlns:xlink="http://www.w3.org/1999/xlink">
    <defs>
        <polygon id="path-1" points="0.003984375 0.000800506459 33.9999773 0.000800506459 33.9999773 34 0.003984375 34"></polygon>
    </defs>
    <g id="Brusselslife-home-section-article" stroke="none" stroke-width="1" fill="none" fill-rule="evenodd">
        <g id="Final-header" transform="translate(-596.000000, -400.000000)">
            <g id="soccer-ball" transform="translate(596.000000, 400.000000)">
                <g id="Group-3">
                    <mask id="mask-2" fill="white">
                        <use xlink:href="#path-1"></use>
                    </mask>
                    <g id="Clip-2"></g>
                    <path d="M24.1698164,25.9099922 L20.9024961,20.8821094 L22.637957,15.5410547 L27.8646602,14.3675898 L32.4978242,19.125332 C32.2356523,21.0652578 31.6168125,22.9590977 30.6490742,24.6930312 L24.1698164,25.9099922 Z M14.2636641,32.4510742 L10.9259531,26.6652969 L14.1900859,21.6421953 L19.8127031,21.6421953 L23.0769023,26.6653633 L19.7429766,32.4450977 C17.9128867,32.7746055 16.0585586,32.7694922 14.2636641,32.4510742 Z M4.36813672,26.273168 C4.35073828,26.2494609 4.33420313,26.2253555 4.3169375,26.2016484 L9.724,27.2395781 L12.4857031,32.0266719 C9.32708984,31.0744062 6.45528516,29.1172148 4.36813672,26.273168 Z M1.51286719,14.6247812 C1.89808984,12.1158203 2.86264062,9.78960937 4.31408203,7.79443359 L5.21249219,13.4104766 L1.33084766,17.3261211 C1.3143125,16.4308984 1.37434375,15.5278398 1.51286719,14.6247812 Z M7.73068359,4.36913281 C8.70061328,3.65732422 9.73382813,3.06703906 10.8116016,2.60133203 L16.3211953,5.97237891 L16.3211953,10.9283437 L11.7320586,14.2625352 L6.50601953,13.0892695 L5.43900391,6.41935937 C6.12690625,5.67096094 6.89270313,4.98405469 7.73068359,4.36913281 Z M19.3790703,1.51386328 C22.8192461,2.04199219 25.9165,3.65865234 28.2864727,6.12836719 L27.47625,13.0937852 L22.2707305,14.2624688 L17.6815938,10.9283438 L17.6815938,5.94116797 L18.7040508,5.20830859 C19.002082,4.99474609 19.0705469,4.57990625 18.856918,4.28180859 C18.6432227,3.98377734 18.2285156,3.91537891 17.9303516,4.12894141 L16.9736367,4.81465234 L12.3994414,2.01596094 C14.6299609,1.3291875 17.00425,1.14935937 19.3790703,1.51386328 Z M14.3121406,20.3142695 L12.6600859,15.2297422 L16.9852578,12.087332 L21.3104297,15.2298086 L19.658375,20.3143359 L14.3121406,20.3143359 L14.3121406,20.3142695 Z M9.83410156,25.9083984 L3.32735156,24.6594297 C2.34951953,22.9213789 1.72171484,21.0322539 1.46346094,19.0785156 L6.13441016,14.3667266 L11.3649648,15.5410547 L13.1003594,20.8821094 L9.83410156,25.9083984 Z M32.6370117,17.3649687 L28.7773477,13.4015117 L29.4633242,7.50403906 C29.520832,7.57954297 29.5783398,7.65498047 29.6345859,7.73167969 C31.7316289,10.589207 32.7172305,13.9943867 32.6370117,17.3649687 Z M33.8786758,19.0174219 C33.8811328,19.0011523 33.8829922,18.9848828 33.8842539,18.9685469 C33.9078945,18.766207 33.9288789,18.5632031 33.9452813,18.3594687 C34.2727305,14.2926172 33.122043,10.2393125 30.7052539,6.94589453 C28.0190547,3.28551562 24.0682813,0.890242187 19.5804805,0.201277344 C15.0928125,-0.4876875 10.6054102,0.612265625 6.94496484,3.29846484 C3.28458594,5.98466406 0.889246094,9.93550391 0.200347656,14.4232383 C-0.397773438,18.3196914 0.353414063,22.2154141 2.31957031,25.5702578 C2.32096484,25.5727812 2.32249219,25.5752383 2.32388672,25.5777617 C2.62105469,26.0843086 2.94531641,26.5787695 3.29753516,27.0587539 C5.69128125,30.3206289 9.17581641,32.6255898 13.1093242,33.5489687 C13.2885547,33.5910703 13.4683828,33.6294531 13.6484766,33.6656445 C13.6859297,33.6762695 13.7242461,33.683375 13.7631602,33.6873594 C14.8370156,33.8952773 15.9228906,34 17.0059766,34 C18.0965664,34 19.1836367,33.89375 20.2517813,33.6866289 C20.283457,33.6828437 20.3147344,33.677 20.3454141,33.6687656 C21.830457,33.3719961 23.2775156,32.877668 24.6430273,32.1886367 C24.9704102,32.023418 25.1018945,31.6241172 24.9366094,31.296668 C24.771457,30.9692852 24.3720898,30.8378008 24.044707,31.0030859 C23.2221992,31.418125 22.3791719,31.753875 21.5246563,32.0141211 L24.2778594,27.2409062 L29.6683203,26.2284102 C29.1997578,26.8746094 28.6770078,27.4902617 28.0997383,28.0677969 C27.8405547,28.3271797 27.8406211,28.7475977 28.0999375,29.0068477 C28.3593203,29.2660977 28.7796719,29.2658984 29.0389219,29.0067148 C30.0548047,27.9904336 30.9293086,26.8534258 31.6496172,25.6284297 C31.6549297,25.6195977 31.6603086,25.6108984 31.6652227,25.6018672 C32.8395508,23.596332 33.5989063,21.3552539 33.8786758,19.0174219 Z" id="Fill-1" fill="#0A090B" mask="url(#mask-2)"></path>
                </g>
                <path d="M21.3714286,4.85714286 C21.6269398,4.85714286 21.8775935,4.75416113 22.0582001,4.57248582 C22.2389039,4.39178204 22.3428571,4.14122555 22.3428571,3.88571429 C22.3428571,3.63020302 22.2389039,3.37964654 22.0582001,3.19894275 C21.8775935,3.01823897 21.6269398,2.91428571 21.3714286,2.91428571 C21.1160145,2.91428571 20.8653608,3.01823897 20.684657,3.19894275 C20.5039533,3.37964654 20.4,3.63020302 20.4,3.88571429 C20.4,4.14122555 20.5039533,4.39178204 20.684657,4.57248582 C20.8653608,4.75416113 21.1160145,4.85714286 21.3714286,4.85714286" id="Fill-4" fill="#0A090B"></path>
                <path d="M26.2285714,31.0857143 C26.4840827,31.0857143 26.7346392,30.9827274 26.915343,30.801043 C27.0960467,30.6204273 27.2,30.3697612 27.2,30.1142371 C27.2,29.8588103 27.0960467,29.6081441 26.915343,29.4274313 C26.7347363,29.2467184 26.4840827,29.1428571 26.2285714,29.1428571 C25.9730602,29.1428571 25.7225037,29.2467184 25.5417999,29.4274313 C25.3610961,29.6081441 25.2571429,29.8588103 25.2571429,30.1142371 C25.2571429,30.3697612 25.3610961,30.6204273 25.5417999,30.801043 C25.7225037,30.9827274 25.972963,31.0857143 26.2285714,31.0857143" id="Fill-5" fill="#0A090B"></path>
            </g>
        </g>
    </g>
</svg>