
<svg width="20px" height="16px" viewBox="0 0 20 16" version="1.1" xmlns="http://www.w3.org/2000/svg" xmlns:xlink="http://www.w3.org/1999/xlink">
    <defs>
        <polygon id="path-1" points="0 0 20 0 20 16 0 16"></polygon>
    </defs>
    <g id="Page-1" stroke="none" stroke-width="1" fill="none" fill-rule="evenodd">
        <g id="Artboard-Copy" transform="translate(-422.000000, -619.000000)">
            <g id="tag" transform="translate(422.000000, 619.000000)">
                <mask id="mask-2" fill="white">
                    <use xlink:href="#path-1"></use>
                </mask>
                <g id="Clip-2"></g>
                <path d="M5.39437941,15.5400239 C5.99419411,16.1533254 6.96737857,16.1533254 7.56693659,15.5400239 L15.0047108,7.9317563 C15.2182703,7.71330146 15.3825468,7.45299361 15.4892239,7.17561897 C16.2367848,7.38982025 16.9637084,7.50324873 17.6044383,7.4991527 C19.1896555,7.49069808 19.7152377,6.78077234 19.8876768,6.35636079 C20.0603725,5.93625532 20.1834772,5.05419138 19.0705037,3.89459526 L19.0336441,3.85683828 C18.34358,3.15100858 17.3415445,2.49989761 16.2039295,2.01661878 C15.9943742,1.92844915 15.784973,1.84862911 15.5796273,1.77311515 L15.5796273,1.76040696 C15.5672039,0.827877843 14.8322717,0.0758890527 13.9204343,0.0631808622 L9.46438192,0.000217555004 C8.87303772,-0.00818455438 8.30633501,0.227074509 7.89143409,0.655582087 L0.449861026,8.26363963 C-0.149953675,8.87699361 -0.149953675,9.87269609 0.449861026,10.4859976 L5.39437941,15.5400239 Z M11.1278359,2.722501 C11.624721,2.21417338 12.4296761,2.21417338 12.9266126,2.722501 C13.2222077,3.02502945 13.3413082,3.44082884 13.2839654,3.83163195 C13.7726367,4.18441552 14.3558184,4.51225532 14.9800693,4.77686926 C15.2018426,4.86918743 15.4154021,4.95326104 15.6207478,5.02462646 L15.5961063,3.19307164 C15.6330172,3.20987585 15.6658725,3.22237399 15.7027834,3.23917821 C16.6761732,3.65518765 17.5508944,4.21807647 18.1135929,4.79367347 L18.1382343,4.8188798 C18.6720817,5.37746254 18.7296299,5.7346047 18.6845052,5.84393715 C18.5447161,6.18422258 17.045744,6.48659349 14.770514,5.51614986 C14.1053481,5.23058316 13.4810972,4.87758954 12.9759469,4.49539859 C12.9594679,4.51635135 12.9388306,4.5372516 12.922403,4.55841441 C12.4254665,5.06668952 11.6205114,5.06668952 11.1236263,4.55841441 C10.630694,4.05418282 10.630694,3.2307761 11.1278359,2.722501 Z" id="Fill-1" fill="#000000" mask="url(#mask-2)"></path>
            </g>
        </g>
    </g>
</svg>