
<svg width="20px" height="15px" viewBox="0 0 20 15" version="1.1" xmlns="http://www.w3.org/2000/svg" xmlns:xlink="http://www.w3.org/1999/xlink">
    <defs>
        <polygon id="path-1" points="0 0.190983006 20 0.190983006 20 15.190983 0 15.190983"></polygon>
    </defs>
    <g id="Symbols" stroke="none" stroke-width="1" fill="none" fill-rule="evenodd">
        <g id="price" transform="translate(-20.000000, -55.000000)">
            <g id="Group-15" transform="translate(0.000000, 0.809017)">
                <g id="tag" transform="translate(20.000000, 54.000000)">
                    <mask id="mask-2" fill="white">
                        <use xlink:href="#path-1"></use>
                    </mask>
                    <g id="Clip-2"></g>
                    <path d="M5.39437941,14.7597554 C5.99419411,15.3347255 6.96737857,15.3347255 7.56693659,14.7597554 L15.0047108,7.62700454 C15.2182703,7.42220313 15.3825468,7.17816451 15.4892239,6.91812579 C16.2367848,7.11893949 16.9637084,7.22527869 17.6044383,7.22143866 C19.1896555,7.21351245 19.7152377,6.54795708 19.8876768,6.15007125 C20.0603725,5.75622237 20.1834772,4.92928742 19.0705037,3.84216606 L19.0336441,3.80676889 C18.34358,3.14505355 17.3415445,2.53463702 16.2039295,2.08156311 C15.9943742,1.99890408 15.784973,1.92407279 15.5796273,1.85327846 L15.5796273,1.84136453 C15.5672039,0.967118483 14.8322717,0.262128993 13.9204343,0.250215064 L9.46438192,0.191186963 C8.87303772,0.183309986 8.30633501,0.403865357 7.89143409,0.805591212 L0.449861026,7.93814515 C-0.149953675,8.51316452 -0.149953675,9.44663559 0.449861026,10.0216057 L5.39437941,14.7597554 Z M11.1278359,2.74332769 C11.624721,2.26677055 12.4296761,2.26677055 12.9266126,2.74332769 C13.2222077,3.02694811 13.3413082,3.41676004 13.2839654,3.78313796 C13.7726367,4.11387255 14.3558184,4.42122237 14.9800693,4.66929793 C15.2018426,4.75584622 15.4154021,4.83466523 15.6207478,4.90157031 L15.5961063,3.18448766 C15.6330172,3.20024162 15.6658725,3.21195862 15.7027834,3.22771258 C16.6761732,3.61772143 17.5508944,4.14542969 18.1135929,4.68505189 L18.1382343,4.70868282 C18.6720817,5.23235413 18.7296299,5.56717491 18.6845052,5.66967408 C18.5447161,5.98869167 17.045744,6.2721644 14.770514,5.3623735 C14.1053481,5.09465472 13.4810972,4.7637232 12.9759469,4.40541918 C12.9594679,4.4250624 12.9388306,4.44465638 12.922403,4.46449652 C12.4254665,4.94100443 11.6205114,4.94100443 11.1236263,4.46449652 C10.630694,3.9917794 10.630694,3.2198356 11.1278359,2.74332769 Z" id="Fill-1" fill="#BFBFBF" mask="url(#mask-2)"></path>
                </g>
            </g>
        </g>
    </g>
</svg>