
<svg width="15px" height="12px" viewBox="0 0 15 12" version="1.1" xmlns="http://www.w3.org/2000/svg" xmlns:xlink="http://www.w3.org/1999/xlink">
    <defs>
        <polygon id="path-1" points="2.92436745e-16 0 15 0 15 12 2.92436745e-16 12"></polygon>
    </defs>
    <g id="Page-1" stroke="none" stroke-width="1" fill="none" fill-rule="evenodd">
        <g id="About-page" transform="translate(-579.000000, -669.000000)">
            <g id="Group-14" transform="translate(434.000000, 655.000000)">
                <g id="envelope" transform="translate(145.000000, 14.000000)">
                    <mask id="mask-2" fill="white">
                        <use xlink:href="#path-1"></use>
                    </mask>
                    <g id="Clip-2"></g>
                    <path d="M1.43975651,3.8753382 C1.6294381,4.0182198 2.20130821,4.44206993 3.15536682,5.14729957 C4.11006755,5.85307716 4.84092602,6.39624645 5.34858434,6.77680742 C5.40432017,6.81845269 5.52324038,6.90941471 5.7043176,7.04914552 C5.88590851,7.1892873 6.03642092,7.30216788 6.15636852,7.38833522 C6.2761877,7.47505052 6.4211779,7.57135518 6.59172439,7.67889311 C6.76175718,7.78602007 6.92228662,7.86629679 7.07279903,7.91972328 C7.22382514,7.97328676 7.36329312,8 7.49171668,8 L7.50828332,8 C7.63670688,8 7.77617486,7.97328676 7.92720097,7.91972328 C8.07758495,7.86629679 8.2381144,7.78547211 8.40827561,7.67889311 C8.5783084,7.57135518 8.7232986,7.47505052 8.84363148,7.38833522 C8.96357908,7.30216788 9.11409149,7.1892873 9.29516871,7.04914552 C9.47675962,6.90941471 9.59567983,6.81845269 9.65128723,6.77680742 C10.1644678,6.39569848 11.4702785,5.42881606 13.5687194,3.87479023 C13.976079,3.57135518 14.316273,3.20531525 14.5895583,2.77667043 C14.8629721,2.34802562 15,1.89910613 15,1.42867906 C15,1.03592589 14.8670816,0.699339018 14.6021438,0.41946642 C14.3373344,0.139593822 14.0232104,0 13.6605423,0 L1.33945771,0 C0.909495638,0 0.5789334,0.154662831 0.347128877,0.464399466 C0.115838049,0.773725128 0,1.16058769 0,1.62512415 C0,2.00020549 0.153466152,2.40638378 0.460526879,2.84420699 C0.767073912,3.28134525 1.09365502,3.62546663 1.43975651,3.8753382 Z" id="Fill-1" fill="#FFFFFF" mask="url(#mask-2)"></path>
                    <path d="M14.1626784,4.72976407 C12.3326427,5.97056884 10.9430998,6.93501021 9.99443498,7.62257354 C9.67645825,7.85776548 9.41807005,8.04072114 9.2199125,8.1718265 C9.02226864,8.30357516 8.75835823,8.43776838 8.42933708,8.57440615 C8.0996738,8.71168723 7.79325519,8.78000611 7.50828332,8.78000611 L7.49171668,8.78000611 C7.20674481,8.78000611 6.8998125,8.71168723 6.57066292,8.57440615 C6.24164177,8.43776838 5.97773136,8.30357516 5.77957381,8.1718265 C5.58192995,8.04072114 5.32354175,7.85776548 5.00556502,7.62257354 C4.25197558,7.06920343 2.86538643,6.10476206 0.845283859,4.72976407 C0.527178706,4.51708776 0.245288996,4.27391885 0,4 L0,10.6581965 C0,11.0275817 0.130992029,11.3431866 0.393232935,11.6060406 C0.655602264,11.8688946 0.971138946,12 1.33945771,12 L13.6605423,12 C14.0287326,12 14.3442693,11.8688946 14.6066386,11.6060406 C14.869008,11.3431866 15,11.0275817 15,10.6581965 L15,4 C14.7597195,4.26838643 14.4807836,4.51155535 14.1626784,4.72976407 Z" id="Fill-3" fill="#FFFFFF" mask="url(#mask-2)"></path>
                </g>
            </g>
        </g>
    </g>
</svg>