
<svg width="39px" height="40px" viewBox="0 0 39 40" version="1.1" xmlns="http://www.w3.org/2000/svg" xmlns:xlink="http://www.w3.org/1999/xlink">
    <!-- Generator: Sketch 51.2 (57519) - http://www.bohemiancoding.com/sketch -->
    <desc>Created with Sketch.</desc>
    <defs>
        <polygon id="path-1" points="0.00598354525 0.0791467685 38.0815757 0.0791467685 38.0815757 34.8207759 0.00598354525 34.8207759"></polygon>
    </defs>
    <g id="Page-1" stroke="none" stroke-width="1" fill="none" fill-rule="evenodd" opacity="0.682533482">
        <g id="badge" transform="translate(-171.000000, -122.000000)">
            <g id="calendar-(1)" transform="translate(171.000000, 122.000000)">
                <path d="M14.8148148,22.127268 C14.8148148,21.5952851 14.3836129,21.1640212 13.8509453,21.1640212 L10.487244,21.1640212 C9.95544646,21.1640212 9.52380952,21.5952851 9.52380952,22.127268 L9.52380952,25.4909095 C9.52380952,26.0237625 9.95544646,26.4550265 10.487244,26.4550265 L13.8509453,26.4550265 C14.3836129,26.4550265 14.8148148,26.0237625 14.8148148,25.4909095 L14.8148148,22.127268 Z" id="Fill-1" fill="#FFFFFF"></path>
                <path d="M22.2222222,22.127268 C22.2222222,21.5952851 21.7905942,21.1640212 21.2591338,21.1640212 L17.8947404,21.1640212 C17.362845,21.1640212 16.9312169,21.5952851 16.9312169,22.127268 L16.9312169,25.4909095 C16.9312169,26.0237625 17.362845,26.4550265 17.8947404,26.4550265 L21.2591338,26.4550265 C21.7905942,26.4550265 22.2222222,26.0237625 22.2222222,25.4909095 L22.2222222,22.127268 Z" id="Fill-2" fill="#FFFFFF"></path>
                <path d="M29.6296296,22.127268 C29.6296296,21.5952851 29.1981369,21.1640212 28.6662743,21.1640212 L25.3024146,21.1640212 C24.7702258,21.1640212 24.3386243,21.5952851 24.3386243,22.127268 L24.3386243,25.4909095 C24.3386243,26.0237625 24.7702258,26.4550265 25.3024146,26.4550265 L28.6662743,26.4550265 C29.1981369,26.4550265 29.6296296,26.0237625 29.6296296,25.4909095 L29.6296296,22.127268 Z" id="Fill-3" fill="#FFFFFF"></path>
                <path d="M14.8148148,29.5354566 C14.8148148,29.0022663 14.3836129,28.5714286 13.8509453,28.5714286 L10.487244,28.5714286 C9.95544646,28.5714286 9.52380952,29.0022663 9.52380952,29.5354566 L9.52380952,32.8988409 C9.52380952,33.4312698 9.95544646,33.8624339 10.487244,33.8624339 L13.8509453,33.8624339 C14.3836129,33.8624339 14.8148148,33.4312698 14.8148148,32.8988409 L14.8148148,29.5354566 Z" id="Fill-4" fill="#FFFFFF"></path>
                <path d="M22.2222222,29.5354566 C22.2222222,29.0022663 21.7905942,28.5714286 21.2591338,28.5714286 L17.8947404,28.5714286 C17.362845,28.5714286 16.9312169,29.0022663 16.9312169,29.5354566 L16.9312169,32.8988409 C16.9312169,33.4312698 17.362845,33.8624339 17.8947404,33.8624339 L21.2591338,33.8624339 C21.7905942,33.8624339 22.2222222,33.4312698 22.2222222,32.8988409 L22.2222222,29.5354566 Z" id="Fill-5" fill="#FFFFFF"></path>
                <g id="Group-9" transform="translate(0.000000, 4.232804)">
                    <mask id="mask-2" fill="white">
                        <use xlink:href="#path-1"></use>
                    </mask>
                    <g id="Clip-7"></g>
                    <path d="M29.176365,25.0387957 C29.176365,24.5483058 28.7806532,24.1519716 28.2932934,24.1519716 L25.2079781,24.1519716 C24.7199202,24.1519716 24.3241087,24.5483058 24.3241087,25.0387957 L24.3241087,28.1328239 C24.3241087,28.6226134 24.7199202,29.0192477 25.2079781,29.0192477 L28.2932934,29.0192477 C28.7806532,29.0192477 29.176365,28.6226134 29.176365,28.1328239 L29.176365,25.0387957 Z" id="Fill-6" fill="#FFFFFF" mask="url(#mask-2)"></path>
                    <path d="M34.6920967,0.0963569382 L34.6920967,4.82294992 C34.6920967,6.95941238 32.9644478,8.68112976 30.8355024,8.68112976 L28.4027923,8.68112976 C26.273448,8.68112976 24.5231613,6.95941238 24.5231613,4.82294992 L24.5231613,0.0791467685 L13.5584144,0.0791467685 L13.5584144,4.82294992 C13.5584144,6.95941238 11.8081276,8.68112976 9.67928197,8.68112976 L7.2460733,8.68112976 C5.1171279,8.68112976 3.38987784,6.95941238 3.38987784,4.82294992 L3.38987784,0.0963569382 C1.52899526,0.152590167 0,1.69730295 0,3.59602492 L0,31.2971938 C0,33.2319371 1.56290202,34.8207759 3.4908003,34.8207759 L34.5907754,34.8207759 C36.5159811,34.8207759 38.0815757,33.228435 38.0815757,31.2971938 L38.0815757,3.59602492 C38.0815757,1.69730295 36.5525804,0.152590167 34.6920967,0.0963569382 Z M33.5620045,29.5723746 C33.5620045,30.4083686 32.886562,31.0865693 32.0528546,31.0865693 L5.96210421,31.0865693 C5.12889554,31.0865693 4.45295438,30.4083686 4.45295438,29.5723746 L4.45295438,15.2635194 C4.45295438,14.4274253 5.12849663,13.7489244 5.96210421,13.7489244 L32.0528546,13.7489244 C32.886562,13.7489244 33.5620045,14.4274253 33.5620045,15.2635194 L33.5620045,29.5723746 Z" id="Fill-8" fill="#FFFFFF" mask="url(#mask-2)"></path>
                </g>
                <path d="M6.67629959,10.5820106 L9.19671628,10.5820106 C9.96175138,10.5820106 10.5820106,9.97848469 10.5820106,9.2329587 L10.5820106,1.34956084 C10.5820106,0.604034849 9.96175138,0 9.19671628,0 L6.67629959,0 C5.91126449,0 5.29100529,0.604034849 5.29100529,1.34956084 L5.29100529,9.2329587 C5.29100529,9.97848469 5.91126449,10.5820106 6.67629959,10.5820106 Z" id="Fill-10" fill="#FFFFFF"></path>
                <path d="M27.8404302,10.5820106 L30.3610459,10.5820106 C31.1257236,10.5820106 31.7460317,9.97848469 31.7460317,9.2329587 L31.7460317,1.34956084 C31.7460317,0.604034849 31.1257236,0 30.3610459,0 L27.8404302,0 C27.0753346,0 26.4550265,0.604034849 26.4550265,1.34956084 L26.4550265,9.2329587 C26.4550265,9.97848469 27.0753346,10.5820106 27.8404302,10.5820106 Z" id="Fill-11" fill="#FFFFFF"></path>
            </g>
        </g>
    </g>
</svg>