
<svg width="26px" height="26px" viewBox="0 0 26 26" version="1.1" xmlns="http://www.w3.org/2000/svg" xmlns:xlink="http://www.w3.org/1999/xlink">
    <!-- Generator: Sketch 51.2 (57519) - http://www.bohemiancoding.com/sketch -->
    <desc>Created with Sketch.</desc>
    <defs>
        <polygon id="path-1" points="0.06 0.4 25.602 0.4 25.602 26.002 0.06 26.002"></polygon>
    </defs>
    <g id="Brusselslife-shan-design" stroke="none" stroke-width="1" fill="none" fill-rule="evenodd">
        <g id="Brusselslife-Home-v5.2" transform="translate(-472.000000, -2446.000000)">
            <g id="Group-8" transform="translate(0.000000, 2435.000000)">
                <g id="restaurant-cutlery-circular-symbol-of-a-spoon-and-a-fork-in-a-circle" transform="translate(472.000000, 11.000000)">
                    <path d="M12.801,2.404 C6.84,2.404 2.004,7.236 2.004,13.201 C2.004,17.498 4.523,21.193 8.156,22.931 L8.492,16.404 C8.492,16.404 7.855,16.193 7.719,16.127 C6.371,15.533 5.391,13.783 5.391,11.513 C5.391,9.041 7.309,6.908 9.168,6.888 L9.176,6.888 C11.031,6.908 12.953,9.041 12.953,11.513 C12.953,13.783 11.973,15.533 10.625,16.127 C10.613,16.13 9.844,16.412 9.844,16.412 L10.223,23.67 C11.051,23.873 11.91,23.994 12.801,23.994 C14.004,23.994 15.156,23.791 16.234,23.427 L16.57,16.959 C15.688,16.763 14.938,16.205 14.465,15.498 C13.879,14.627 14.914,6.888 14.914,6.888 L15.586,6.888 L15.586,14.15 L16.254,14.15 L16.254,6.888 L16.98,6.888 L16.98,14.15 L17.648,14.15 L17.648,6.888 L18.402,6.888 L18.402,14.15 L19.07,14.15 L19.07,6.888 L19.586,6.888 C19.586,6.888 20.617,14.627 20.035,15.502 C19.566,16.197 18.824,16.755 17.953,16.955 C17.938,16.959 17.926,16.966 17.926,16.966 L18.215,22.529 C21.43,20.662 23.598,17.189 23.598,13.201 C23.594,7.236 18.762,2.404 12.801,2.404 Z" id="Fill-1" fill="#FFFFFF"></path>
                    <g id="Group-5">
                        <mask id="mask-2" fill="white">
                            <use xlink:href="#path-1"></use>
                        </mask>
                        <g id="Clip-3"></g>
                        <path d="M6.969,10.42 C7.008,10.259 7.062,10.111 7.062,10.107 C7.078,10.048 7.047,9.99 6.984,9.951 C6.926,9.92 6.848,9.935 6.816,9.986 C6.816,9.986 6.742,10.103 6.633,10.279 C6.547,10.427 6.418,10.666 6.332,10.966 C6.254,11.224 6.164,11.572 6.121,11.962 C6.105,12.166 6.102,12.349 6.105,12.537 C6.121,12.755 6.156,12.939 6.219,13.15 C6.43,13.755 6.594,14.337 7.184,14.912 C7.367,15.103 7.559,15.236 7.699,15.33 L7.746,15.365 C7.777,15.384 7.805,15.404 7.832,15.42 C7.949,15.478 8.027,15.502 8.043,15.505 C8.098,15.521 8.16,15.494 8.184,15.447 C8.207,15.396 8.191,15.334 8.141,15.295 C8.141,15.295 8.074,15.236 7.988,15.127 C7.93,15.06 7.863,14.966 7.789,14.857 C7.738,14.779 7.676,14.693 7.617,14.607 C7.332,14.17 7.164,13.56 6.938,12.931 C6.891,12.795 6.855,12.619 6.84,12.47 C6.824,12.298 6.812,12.13 6.812,11.978 C6.809,11.619 6.824,11.31 6.855,11.06 C6.891,10.779 6.918,10.568 6.969,10.42 Z" id="Fill-2" fill="#FFFFFF" mask="url(#mask-2)"></path>
                        <path d="M12.801,0.4 C5.742,0.4 0,6.142 0,13.201 C0,20.255 5.742,26.002 12.801,26.002 C19.859,26.002 25.602,20.255 25.602,13.201 C25.602,6.142 19.859,0.4 12.801,0.4 Z M12.801,25.045 C6.27,25.045 0.953,19.732 0.953,13.201 C0.953,6.67 6.27,1.353 12.801,1.353 C19.332,1.353 24.645,6.67 24.645,13.201 C24.645,19.732 19.332,25.045 12.801,25.045 Z" id="Fill-4" fill="#FFFFFF" mask="url(#mask-2)"></path>
                    </g>
                </g>
            </g>
        </g>
    </g>
</svg>