
<svg width="20px" height="14px" viewBox="0 0 20 14" version="1.1" xmlns="http://www.w3.org/2000/svg" xmlns:xlink="http://www.w3.org/1999/xlink">
    <defs>
        <polygon id="path-1" points="1.83589352e-16 0 20 0 20 14 1.83589352e-16 14"></polygon>
    </defs>
    <g id="Page-1" stroke="none" stroke-width="1" fill="none" fill-rule="evenodd">
        <g id="Artboard-Copy-2" transform="translate(-851.000000, -210.000000)">
            <g id="youtube" transform="translate(851.000000, 210.000000)">
                <mask id="mask-2" fill="white">
                    <use xlink:href="#path-1"></use>
                </mask>
                <g id="Clip-2"></g>
                <path d="M19.2203226,1.20170056 C18.498629,0.348132996 17.1657258,0 14.6200806,0 L5.37959677,0 C2.77596774,0 1.42040323,0.370673405 0.701209677,1.27934865 C0,2.1654835 0,3.47122288 0,5.27822564 L0,8.72217543 C0,12.222757 0.831935484,14 5.37959677,14 L14.6200806,14 C16.8277419,14 18.0509677,13.6929371 18.8423387,12.9397184 C19.6537903,12.1670076 20,10.9057875 20,8.72217543 L20,5.27822564 C20,3.37247824 19.9458065,2.05927887 19.2203226,1.20170056 Z M12.8402419,7.47571492 L8.64419355,9.65684033 C8.55024194,9.70569125 8.44758065,9.72983596 8.34516129,9.72983596 C8.22927419,9.72983596 8.11330645,9.69879276 8.01096774,9.63710745 C7.81782258,9.52087595 7.7,9.31247744 7.7,9.08811615 L7.7,4.73958208 C7.7,4.51554165 7.81758065,4.307464 8.01032258,4.1912325 C8.20314516,4.07468014 8.44258065,4.06681908 8.64258065,4.17021618 L12.838629,6.33730397 C13.0519355,6.44759957 13.186129,6.66666667 13.1864516,6.90602816 C13.1867742,7.14538964 13.0531452,7.3647776 12.8402419,7.47571492 Z" id="Fill-1" fill="#F45AAE" mask="url(#mask-2)"></path>
            </g>
        </g>
    </g>
</svg>