
<svg width="20px" height="21px" viewBox="0 0 20 21" version="1.1" xmlns="http://www.w3.org/2000/svg" xmlns:xlink="http://www.w3.org/1999/xlink">
    <defs>
        <polygon id="path-1" points="-6.71897088e-16 0 20 0 20 21 -6.71897088e-16 21"></polygon>
    </defs>
    <g id="Page-1" stroke="none" stroke-width="1" fill="none" fill-rule="evenodd">
        <g id="Artboard-Copy-2" transform="translate(-690.000000, -204.000000)">
            <g id="shopping-purse-icon" transform="translate(690.000000, 204.000000)">
                <mask id="mask-2" fill="white">
                    <use xlink:href="#path-1"></use>
                </mask>
                <g id="Clip-2"></g>
                <path d="M6.87058111,9 C7.35163438,9 7.7433414,8.59812446 7.7433414,8.10458328 L7.7433414,4.61793566 C7.7433414,3.05682524 8.97947942,1.78803875 10.4989104,1.78803875 C12.0183414,1.78803875 13.2550242,3.05682524 13.2550242,4.61793566 L13.2550242,8.10458328 C13.2550242,8.59812446 13.6461864,9 14.1272397,9 C14.608293,9 15,8.59812446 15,8.10458328 L15,4.61793566 C15,2.07197864 12.9804479,0 10.4989104,0 C8.01737288,0 6,2.07197864 6,4.61793566 L6,8.10458328 C6,8.59812446 6.38952785,9 6.87058111,9 Z" id="Fill-1" fill="#2D5A9B" mask="url(#mask-2)"></path>
                <path d="M19.6687027,7 L15.2046416,7 L15.2046416,8.07916892 C15.2046416,9.03398471 14.4511737,9.80875879 13.5232626,9.80875879 C12.5958771,9.80875879 11.8424091,9.03398471 11.8424091,8.07916892 L11.8424091,7 L8.20747797,7 L8.20747797,8.07916892 C8.20747797,9.03398471 7.45243373,9.80875879 6.52662444,9.80875879 C5.59871342,9.80875879 4.84366918,9.03398471 4.84366918,8.07916892 L4.84366918,7 L0.332319257,7 C0.100078788,7 -0.043363855,7.1881517 0.0118063922,7.42009732 L2.95316871,19.7456554 C3.1297135,20.4382482 3.84009611,21 4.53576666,21 L15.4652553,21 C16.1609259,21 16.8686813,20.4382482 17.0473279,19.7456554 L19.9886902,7.42009732 C20.0422841,7.1881517 19.9004178,7 19.6687027,7 Z" id="Fill-3" fill="#2D5A9B" mask="url(#mask-2)"></path>
            </g>
        </g>
    </g>
</svg>