
<svg width="20px" height="16px" viewBox="0 0 20 16" version="1.1" xmlns="http://www.w3.org/2000/svg" xmlns:xlink="http://www.w3.org/1999/xlink">
    <defs>
        <polygon id="path-1" points="5.69416362e-16 -8.88733878e-16 20 -8.88733878e-16 20 16 5.69416362e-16 16"></polygon>
    </defs>
    <g id="Page-1" stroke="none" stroke-width="1" fill="none" fill-rule="evenodd">
        <g id="Artboard-Copy-2" transform="translate(-401.000000, -260.000000)">
            <g id="photo-camera" transform="translate(401.000000, 260.000000)">
                <mask id="mask-2" fill="white">
                    <use xlink:href="#path-1"></use>
                </mask>
                <g id="Clip-2"></g>
                <path d="M10,6 C8.34275,6 7,7.34375 7,9 C7,10.65725 8.34275,12 10,12 C11.65625,12 13,10.65725 13,9 C13,7.34375 11.65625,6 10,6 Z M18,3 L15.5995,3 C15.2695,3 14.914,2.74425 14.8105,2.43075 L14.1895,0.56925 C14.085,0.25575 13.7305,0 13.4005,0 L6.5995,0 C6.2695,0 5.914,0.25575 5.8105,0.56925 L5.1895,2.43075 C5.085,2.74425 4.7305,3 4.4005,3 L2,3 C0.9005,3 0,3.9005 0,5 L0,14 C0,15.0995 0.9005,16 2,16 L18,16 C19.0995,16 20,15.0995 20,14 L20,5 C20,3.9005 19.0995,3 18,3 Z M10,14 C7.23825,14 5,11.76175 5,9 C5,6.23925 7.23825,4 10,4 C12.76075,4 15,6.23925 15,9 C15,11.76175 12.76075,14 10,14 Z M17.29975,6.3985 C16.914,6.3985 16.5995,6.085 16.5995,5.69825 C16.5995,5.3125 16.914,4.999 17.29975,4.999 C17.6865,4.999 18,5.3125 18,5.69825 C18,6.085 17.6865,6.3985 17.29975,6.3985 Z" id="Fill-1" fill="#000000" mask="url(#mask-2)"></path>
            </g>
        </g>
    </g>
</svg>