
<svg width="18px" height="18px" viewBox="0 0 18 18" version="1.1" xmlns="http://www.w3.org/2000/svg" xmlns:xlink="http://www.w3.org/1999/xlink">
    <defs>
        <polygon id="path-1" points="-9.19294332e-16 0 18 0 18 18 -9.19294332e-16 18"></polygon>
    </defs>
    <g id="Page-1" stroke="none" stroke-width="1" fill="none" fill-rule="evenodd">
        <g id="Artboard-Copy-2" transform="translate(-546.000000, -261.000000)">
            <g id="feedback" transform="translate(546.000000, 261.000000)">
                <mask id="mask-2" fill="white">
                    <use xlink:href="#path-1"></use>
                </mask>
                <g id="Clip-2"></g>
                <path d="M3.19921875,7.6640625 C3.19921875,7.27572656 3.51400781,6.9609375 3.90234375,6.9609375 L14.0976562,6.9609375 C14.4859922,6.9609375 14.8007812,7.27572656 14.8007812,7.6640625 C14.8007812,8.05239844 14.4859922,8.3671875 14.0976562,8.3671875 L3.90234375,8.3671875 C3.51400781,8.3671875 3.19921875,8.05239844 3.19921875,7.6640625 Z M3.19921875,10.8984375 C3.19921875,10.5101016 3.51400781,10.1953125 3.90234375,10.1953125 L14.0976562,10.1953125 C14.4859922,10.1953125 14.8007812,10.5101016 14.8007812,10.8984375 C14.8007812,11.2867734 14.4859922,11.6015625 14.0976562,11.6015625 L3.90234375,11.6015625 C3.51400781,11.6015625 3.19921875,11.2867734 3.19921875,10.8984375 Z M3.19921875,4.4296875 C3.19921875,4.04135156 3.51400781,3.7265625 3.90234375,3.7265625 L14.0976562,3.7265625 C14.4859922,3.7265625 14.8007812,4.04135156 14.8007812,4.4296875 C14.8007812,4.81802344 14.4859922,5.1328125 14.0976562,5.1328125 L3.90234375,5.1328125 C3.51400781,5.1328125 3.19921875,4.81802344 3.19921875,4.4296875 Z M16.59375,13.921875 L10.6875,13.921875 C10.4462578,13.921875 10.2218555,14.0455898 10.0930078,14.2495312 L9,15.9801328 L7.90699219,14.2495312 C7.77814453,14.0455547 7.55377734,13.921875 7.3125,13.921875 L1.40625,13.921875 L1.40625,1.40625 L16.59375,1.40625 L16.59375,13.921875 Z M17.296875,0 L0.703125,0 C0.314789062,0 0,0.314789062 0,0.703125 L0,14.625 C0,15.0133359 0.314789062,15.328125 0.703125,15.328125 L6.92497266,15.328125 L8.40554297,17.6723437 C8.53439062,17.8763203 8.75875781,18 9.00003516,18 C9.2413125,18 9.46567969,17.8762852 9.59452734,17.6723437 L11.0750273,15.328125 L17.296875,15.328125 C17.6852109,15.328125 18,15.0133359 18,14.625 L18,0.703125 C18,0.314789062 17.6852109,0 17.296875,0 Z" id="Fill-1" fill="#696969" mask="url(#mask-2)"></path>
            </g>
        </g>
    </g>
</svg>