
<svg width="12px" height="17px" viewBox="0 0 12 17" version="1.1" xmlns="http://www.w3.org/2000/svg" xmlns:xlink="http://www.w3.org/1999/xlink">
    <g id="Page-1" stroke="none" stroke-width="1" fill="none" fill-rule="evenodd">
        <g id="new-header" transform="translate(-909.000000, -242.000000)" fill="#24475E">
            <g id="Group" transform="translate(909.000000, 242.000000)">
                <path d="M5.9655995,0.001 C5.9772469,0.001 5.9883526,0.0005 6,0 C6.0111057,0.0005 6.0222114,0.001 6.0338589,0.001 C8.772225,0.041 11,2.129875 11,4.65775 C11,7.7485 7.4215288,10.878375 6,12 C5.904789,11.92475 5.7995558,11.840375 5.6868737,11.7475 C5.6847067,11.746125 5.6830815,11.744625 5.6814563,11.743125 C4.1075628,10.452625 1.0000001,7.538625 1.0000001,4.65775 C0.9994584,2.129875 3.2277751,0.041 5.9655995,0.001 Z M8,4.9999482 C8,3.895629 7.1046924,3 5.9998447,3 C4.8954111,3 4,3.895629 4,4.9999482 C4,6.1046816 4.8954111,7 5.9998447,7 C7.1046924,7 8,6.1046816 8,4.9999482 Z" id="Combined-Shape"></path>
                <path d="M6.0000674,17 C3.0187603,17 0,16.1044671 0,14.3925558 C0,13.1915512 1.486275,12.3929509 3.4023195,12.0231397 C3.7733494,12.4132686 4.1239012,12.7572594 4.4317455,13.0443886 C2.3446015,13.2884838 1.1183438,13.9802749 1.1183438,14.3925558 C1.1183438,14.8985241 2.9713375,15.8287665 6.0000674,15.8287665 C9.0286625,15.8287665 10.8821951,14.8985241 10.8821951,14.3925558 C10.8821951,13.9719502 9.6039339,13.2626633 7.4409404,13.03169 C7.7514792,12.7417389 8.1051296,12.394644 8.4787192,12 C10.4521561,12.3597934 12,13.1667184 12,14.3925558 C12,16.1044671 8.9817786,17 6.0000674,17 Z" id="Path"></path>
            </g>
        </g>
    </g>
</svg>